<?xml version="1.0" encoding="UTF-8"?>
<svg xmlns="http://www.w3.org/2000/svg" version="1.1" viewBox="0 0 1080 1080">
  <defs>
    <style>
      .cls-1 {
        fill: #231f20;
      }

      .cls-2 {
        fill: #9f7f46;
      }
    </style>
  </defs>
  <!-- Generator: Adobe Illustrator 28.6.0, SVG Export Plug-In . SVG Version: 1.2.0 Build 709)  -->
  <g>
    <g id="Layer_1">
      <g>
        <path d="M217.87,850.5c1.26.93,3.29.44,5.86-.86,3.06-1.54,5.72-3.82,8.79-5.32,5.76-2.8,11.54-5.55,17.36-8.22,11.38-5.22,22.89-10.16,34.54-14.74,23.55-9.24,47.71-17.01,72.43-22.45,62.3-13.71,126.47-2.78,189.47-2.74,29.93.02,59.55-5.44,89.4-6.97,61.02-3.1,121.32,15.58,176.06,41.13,9.97,4.66,19.84,9.54,29.59,14.66,3.14,1.65,23.62,9.91,23.62,13.94,0,0,0-151.73,0-151.73h-14.27c-6.8,0-16.29-1.64-22.4,1.84-2.61,1.49-4.65,4.29-4.48,7.3.23,3.98,3.69,8.26,7.68,8.76,4.01.5,8.23-.02,12.27-.09-.05,0-.03,81.62-.03,90.27,0-.71-7.09-3.45-7.72-3.74-7.13-3.34-14.36-6.47-21.65-9.44-23.39-9.53-47.5-17.48-72.11-23.19-40.44-9.38-80.31-10.6-121.34-5.67-13.45,1.61-26.83,3.75-40.12,6.33-10.74,2.08-22.4,5.65-33.63,5.64-12.44,0-24.58-3.22-36.8-5.1-23.48-3.61-47.15-6.28-70.89-7.41-20.38-.97-40.94-.9-61.2,1.75-26.65,4.76-53.19,10.81-79.23,18.17-11.65,3.29-23.25,6.89-34.54,11.27-10.1,3.92-19.36,10.55-30.29,12.03-.16-27.92.04-55.84-.06-83.75-.03-6.58,5.42-11.46,11.19-13.59,2.09-.77,4.9-1.54,6.14-3.58.87-1.42,1.68-6.42.15-7.47-.73-.5-1.69-.52-2.58-.52-9.4.03-18.79.18-28.19.18,0,0-6.45,1.38-5.85,9.29,0,22.27.63,44.55.94,66.81.29,20.91.34,41.82.47,62.74.02,2.38.52,3.78,1.42,4.46Z"/>
        <path d="M265.96,599.71c-1.31,2.38-2.06,5.07-2.06,8.02,0,51.26-.02,102.52-.02,153.78,0,1.5.02,3.07.76,4.37,2.05,3.59,7.42,2.5,11.28,1.01,79.24-30.64,170.68-28.25,248.22,6.47,4.39,1.97,8.89,4.07,13.7,4.2,5.09.15,9.94-1.92,14.65-3.86,82.95-34.02,178.78-35.44,262.7-3.89,0-59.29.02-118.59.02-177.88-10.04-2.05-20.48-2.14-30.56-.26-3.97.74-8.29,2.08-10.32,5.57-2.69,4.64.33,10.93,5.01,13.55,4.68,2.62,10.36,2.53,15.71,2.13,0,41.3,0,82.61,0,123.91-82.07-23.9-173.58-13.39-248.1,28.49-2.21,1.24-4.55,2.55-7.09,2.51-2.49-.04-4.76-1.37-6.91-2.63-73.21-42.91-163.96-47.83-246.91-29.94-.16-36.77-.32-73.54-.49-110.31-.02-4.54.42-9.93,4.33-12.23,2.68-1.57,6.1-1.07,8.99-2.2,8.46-3.29,5.14-17.64-3.39-20.72-10.73-3.87-24.41.58-29.52,9.89Z"/>
        <path d="M317.75,537.08c-.16.68-.25,1.42-.25,2.22.11,29.88.04,59.75.04,89.63,0,15.32,0,30.63,0,45.95,0,6.65-1.62,15.65,0,22.07,1.5,5.94-.02,4.01,4.66,5.16,10.8,2.65,22.3.37,33.22-.12,44.74-2,95.51,8.99,136.16,27.75,0,0,42.58,19.04,47.95,23.01,41-20.91,84.04-41.54,130.27-47.08,30.44-3.65,62.49-1.25,93.2-1.62,0,0,0-170.77,0-170.77-23.79,0-45.18-.37-68.41,5.46-15.15,3.8-38.91,7.49-50.47,19.05,0,0-6.32,6.32,7.91,2.77,0,0,62.06-15.02,79.46-9.49,0,0,5.53-1.19,5.93,9.88,0,39.44.08,78.88,0,118.32,0,1.3-.05,2.73-.93,3.68-.82.89-2.12,1.12-3.32,1.25-15.54,1.72-31.46.3-47.12,1.98-17.04,1.83-33.95,5.01-50.47,9.6-32.32,8.97-63.33,23.33-90.18,43.55-1.25.94-2.52,2.35-4.08,2.22-8.4-.71-30.24-14.65-37.72-18.64-9.29-4.95-18.46-10.6-28.09-14.88-19.55-8.67-39.63-16.51-60.68-20.65-21.66-4.26-43.27-2.96-65.19-2.96,0,0-8.7,1.85-8.7-15.54,0,0,0-112.36,0-113.06,0-17.53,74.66,3.65,82.03,4.26,1.44.12-6.33-9.19-7.96-10.23-3.85-2.46-8.53-4.01-12.79-5.56-11.56-4.23-23.63-7.24-35.7-9.61-9.4-1.85-45.45-11.36-48.77,2.43Z"/>
        <path class="cls-2" d="M460.12,553.63c-.51-3.38,9.08-10.67,11.17-12.25,11.53-8.74,24.65-6.35,37.52-10.48-4.83,1.55-14.97-95.59-39.2-86.37-10.12,3.85-20.48,7.28-30.14,12.23-5.67,2.9-23.91,10.42-23.03,18.37.19,1.71,1.1,3.24,1.99,4.71,8.3,13.62,17.15,27.24,25.04,40.72,5.63,9.62,14.95,21.74,16.65,33.06Z"/>
        <path class="cls-2" d="M480.28,586.54s12.33-29.5,46.04-21.49c0,0,2.28-20.16-12.99-26.98,0,0-38.99-.3-48.33,22.24,0,0-.44,21.79,15.27,26.24Z"/>
        <path class="cls-2" d="M489.77,596.32s-4.6-13.04,2.67-18.68c0,0,10.23-11.41,27.72-6.97,0,0,6.08,2.22,7.56,6.52,0,0,12.45,31.87,26.24,52.03,0,0,7.71,6.08,4.89,18.23l.62,26.83-21.82-52.32s-9.64-9.64-9.78,4.59l31.6,57.84-52.8-39.76-16.9-48.33Z"/>
        <path d="M329.48,505.2s28.46-43.53,83.01-61.3c15.59-6.16,31.08-12.59,46.47-19.21,12.48-5.37,24.92-10.86,37.17-16.75,8.75-4.21,19.93-7.07,26.84-14.27,5.37-5.59,3.47-14.28,3.47-21.72,0-13.56,0-27.12,0-40.68,0,1.89-5.01,6.09-6.14,7.31-6.56,7.04-13.96,13.31-21.62,19.1-22.35,16.91-47.85,28.78-73.38,40.01-12.38,5.45-24.75,10.47-36.26,17.63-12.08,7.51-23.47,16.1-35.93,22.98-1.54.85-3.52,1.11-5.03.21-1.16-.7-1.87-1.96-2.33-3.23-1.99-5.47-.54-11.67,1.12-17.04,3.53-11.46,16.07-19.1,24.83-26.34,11.89-9.8,24.75-18.08,38.49-25.07,15.23-7.74,28.38-18.53,42.11-28.59,12.69-9.3,25.23-18.87,36.73-29.63,22.64-21.17,40.38-47.17,45.56-78.22.79-4.75,4.31-1.68,4.99,1.27,13.75,58.94,64.59,94.14,113.16,124.43,19.68,12.27,43.63,24.93,58.79,42.81,2.99,3.52,5.59,7.35,8.19,11.16,5.17,7.59,10.5,15.62,11.37,24.76-30.99-14.2-61.84-28.67-91.99-44.61-27.12-14.34-55.93-29.21-78.98-49.76-3.89-3.47-6.84-7.62-10.46-11.25-2.67-2.37-2.96,1.48-2.96,1.48,0,20.46,0,40.91,0,61.37,28.14,13.09,56.27,26.18,84.4,39.28,23.91,11.13,48.29,21.75,71.12,35.03,17.58,10.23,38.37,23.4,45.79,43.39,0,0,5.34,0,5.34,0,1.57-19.22,2.63-38.5,3.21-57.77.93-30.74,2.29-60.38-17.51-85.88-21.19-27.29-46.47-50.4-73.67-71.59-41.43-32.29-93.67-60.02-118.96-108.13-2.02-3.84-4.42-9.26-7.48-12.62-.48,6.86-5.85,12.47-9.09,18.22-13.72,24.35-38.65,41.96-59.39,59.96-24.74,21.46-49.78,42.61-75.96,62.3-28.13,21.16-68.53,53.19-71.32,91.15l6.32,99.81Z"/>
        <g>
          <path class="cls-1" d="M336.11,837.55c2.87,14.03,5.74,28.07,8.61,42.1-3.48.71-5.22,1.08-8.69,1.82-2.34-10.93-3.51-16.4-5.85-27.33-2.04,9.93-3.95,19.9-5.74,29.89-2.63.6-3.94.9-6.56,1.51-6-8.19-12.11-16.31-18.32-24.34,2.68,10.85,4.02,16.28,6.7,27.13-3.46.85-5.18,1.29-8.63,2.17-3.56-13.87-7.12-27.75-10.69-41.62,4.09-1.05,6.14-1.56,10.24-2.57,7.29,9.15,14.46,18.39,21.5,27.73,2.25-11.48,4.64-22.92,7.19-34.34,4.09-.88,6.14-1.31,10.24-2.15Z"/>
          <path class="cls-1" d="M346.32,838.93c-1.24-.74-2-1.81-2.28-3.22-.28-1.41.02-2.69.9-3.85.88-1.15,2.13-1.89,3.74-2.19,1.61-.31,3.04-.08,4.28.67s1.99,1.83,2.25,3.24c.26,1.41-.05,2.69-.94,3.84-.88,1.15-2.12,1.87-3.71,2.17-1.6.3-3.01.09-4.25-.65ZM355.78,842.74c2.08,11.18,4.15,22.36,6.23,33.53-3.49.65-5.23.98-8.72,1.66-2.18-11.16-4.36-22.32-6.53-33.47,3.61-.7,5.41-1.05,9.02-1.72Z"/>
          <path class="cls-1" d="M395.38,839.59c2.99,2.16,4.8,5.52,5.44,10.07,1.12,7.92,1.68,11.89,2.8,19.81-3.51.5-5.26.75-8.77,1.28-1.12-7.45-1.68-11.18-2.81-18.63-.4-2.68-1.42-4.63-3.05-5.86-1.63-1.22-3.67-1.65-6.12-1.26-2.49.39-4.33,1.43-5.52,3.11-1.19,1.67-1.56,3.85-1.12,6.52,1.24,7.43,1.86,11.15,3.11,18.58-3.5.58-5.24.88-8.74,1.5-1.98-11.2-3.95-22.39-5.93-33.59,3.62-.64,5.42-.95,9.04-1.55.28,1.68.42,2.51.7,4.19.96-1.66,2.31-3.06,4.05-4.19,1.74-1.13,3.73-1.88,5.98-2.23,4.27-.67,7.93.09,10.92,2.25Z"/>
          <path class="cls-1" d="M435.15,832.45c2.24.9,4.06,2.39,5.47,4.46,1.4,2.07,2.25,4.63,2.55,7.7.78,7.97,1.17,11.95,1.95,19.91-3.52.34-5.28.52-8.8.9-.8-7.49-1.2-11.24-2-18.73-.29-2.69-1.22-4.69-2.79-5.98-1.57-1.29-3.6-1.8-6.05-1.52-2.5.29-4.38,1.25-5.64,2.87-1.26,1.62-1.72,3.78-1.39,6.47.92,7.48,1.38,11.22,2.31,18.7-3.51.43-5.27.66-8.78,1.12-1.99-15.05-3.99-30.11-5.99-45.16,3.67-.49,5.51-.72,9.19-1.18.77,6.23,1.15,9.35,1.92,15.58.98-1.61,2.4-2.95,4.25-4.02,1.85-1.07,3.97-1.74,6.35-2,2.73-.31,5.22,0,7.46.89Z"/>
          <path class="cls-1" d="M450.97,837.5c1.21-2.79,3-5,5.37-6.64,2.37-1.64,5.11-2.58,8.2-2.81,2.7-.2,5.09.14,7.18,1.03,2.09.89,3.79,2.07,5.1,3.55-.12-1.94-.18-2.91-.31-4.85,3.68-.23,5.52-.34,9.2-.54.61,11.35,1.22,22.7,1.84,34.06-3.56.19-5.33.3-8.89.52-.13-1.99-.19-2.99-.31-4.98-1.04,1.67-2.52,3.09-4.45,4.27-1.93,1.18-4.18,1.86-6.79,2.06-2.94.22-5.67-.3-8.21-1.57-2.54-1.27-4.64-3.18-6.29-5.73-1.66-2.55-2.65-5.56-2.97-9.03-.31-3.43.12-6.54,1.33-9.33ZM475.96,839.5c-.96-1.44-2.19-2.51-3.71-3.21-1.52-.7-3.12-.99-4.81-.87-1.68.12-3.21.63-4.57,1.51-1.36.89-2.42,2.12-3.18,3.68-.76,1.57-1.05,3.37-.88,5.41.17,2.05.75,3.8,1.75,5.26.99,1.46,2.23,2.55,3.71,3.26,1.48.71,3.02,1,4.63.89,1.65-.12,3.16-.63,4.55-1.52,1.38-.9,2.45-2.12,3.21-3.67.75-1.55,1.07-3.37.94-5.46s-.67-3.85-1.63-5.29Z"/>
          <path class="cls-1" d="M505.21,866.11c.14,3.77-.71,6.52-2.54,8.26-1.82,1.73-4.48,2.67-8,2.84-1.54.07-2.31.11-3.84.19-.15-2.93-.23-4.39-.38-7.32,1-.05,1.5-.08,2.5-.13,1.33-.07,2.26-.36,2.78-.9.52-.54.75-1.38.7-2.53-.6-13.24-1.19-26.49-1.79-39.73,3.65-.16,5.48-.24,9.14-.37.48,13.23.95,26.46,1.43,39.68ZM494.96,821.27c-1.11-.92-1.71-2.09-1.77-3.53-.07-1.43.42-2.66,1.45-3.67,1.04-1.01,2.39-1.55,4.07-1.62,1.63-.07,3,.37,4.09,1.29,1.09.92,1.66,2.11,1.71,3.54.05,1.44-.43,2.65-1.45,3.66-1.02,1-2.33,1.53-3.94,1.6-1.66.07-3.05-.36-4.16-1.27Z"/>
          <path class="cls-1" d="M546.96,825.8c-.08,11.37-.16,22.74-.24,34.11-3.56-.02-5.34-.03-8.9-.02,0-1.72,0-2.59,0-4.31-1.14,1.48-2.62,2.65-4.44,3.5-1.83.85-3.81,1.29-5.95,1.32-2.73.04-5.16-.49-7.29-1.57-2.13-1.09-3.82-2.71-5.09-4.87-1.26-2.16-1.94-4.76-2.02-7.8-.22-8-.33-12-.55-20,3.66-.1,5.48-.14,9.14-.21.14,7.51.21,11.26.34,18.77.05,2.71.79,4.78,2.22,6.21s3.34,2.13,5.75,2.11c2.46-.03,4.38-.76,5.77-2.23,1.4-1.46,2.09-3.55,2.09-6.26-.02-7.51-.03-11.27-.04-18.78,3.68,0,5.53,0,9.21.02Z"/>
          <path class="cls-1" d="M565.4,814.64c-.38,15.18-.76,30.36-1.13,45.54-3.53-.09-5.3-.12-8.83-.18.24-15.18.48-30.37.72-45.55,3.7.06,5.55.1,9.25.19Z"/>
          <path class="cls-1" d="M616.87,819.82c-.76,10.03-1.52,20.05-2.28,30.08-.32,4.17-1.81,7.32-4.46,9.46-2.65,2.13-6.04,3.06-10.2,2.8-4.2-.26-7.52-1.63-9.99-4.14-2.47-2.51-3.62-5.89-3.42-10.15,3.58.17,5.37.26,8.95.46-.06,1.85.32,3.31,1.13,4.38.81,1.07,2.04,1.66,3.69,1.76,1.61.1,2.87-.31,3.78-1.24.91-.93,1.43-2.25,1.54-3.97.67-10.03,1.34-20.07,2-30.1,3.71.25,5.56.38,9.27.66Z"/>
          <path class="cls-1" d="M625.99,837.24c1.67-2.53,3.82-4.4,6.45-5.61,2.62-1.2,5.48-1.65,8.57-1.34,2.69.27,4.99,1.03,6.9,2.27,1.9,1.24,3.37,2.7,4.4,4.39.22-1.93.33-2.9.54-4.83,3.67.41,5.5.63,9.16,1.07-1.38,11.29-2.75,22.57-4.13,33.86-3.54-.43-5.31-.64-8.85-1.04.22-1.98.33-2.97.56-4.96-1.31,1.46-3.03,2.6-5.13,3.43-2.1.83-4.45,1.11-7.05.84-2.93-.29-5.53-1.28-7.81-2.98-2.28-1.69-4.01-3.94-5.2-6.74-1.19-2.8-1.64-5.94-1.35-9.41.29-3.44,1.26-6.42,2.93-8.96ZM650.26,843.56c-.69-1.58-1.73-2.85-3.1-3.81-1.38-.95-2.91-1.52-4.59-1.69-1.68-.17-3.27.06-4.77.7-1.5.64-2.76,1.66-3.78,3.07-1.02,1.41-1.62,3.14-1.81,5.18-.19,2.04.08,3.87.8,5.49.72,1.61,1.75,2.9,3.09,3.85,1.34.96,2.8,1.52,4.41,1.68,1.65.17,3.23-.07,4.75-.71,1.52-.64,2.79-1.66,3.8-3.05,1.01-1.39,1.64-3.13,1.87-5.21.23-2.08,0-3.91-.68-5.5Z"/>
          <path class="cls-1" d="M700.62,842.05c2.21,2.96,2.93,6.71,2.17,11.24-1.31,7.9-1.96,11.84-3.27,19.74-3.5-.58-5.25-.86-8.75-1.41,1.17-7.44,1.75-11.17,2.91-18.61.42-2.68.04-4.85-1.15-6.5-1.19-1.66-3.01-2.67-5.46-3.04-2.49-.37-4.56.07-6.2,1.31-1.64,1.24-2.64,3.2-3.02,5.88-1.05,7.46-1.57,11.19-2.61,18.66-3.51-.49-5.26-.73-8.77-1.19,1.48-11.27,2.95-22.55,4.43-33.82,3.63.48,5.45.72,9.08,1.23-.24,1.68-.35,2.52-.59,4.21,1.41-1.29,3.12-2.22,5.11-2.78,2-.56,4.12-.67,6.37-.33,4.28.65,7.53,2.46,9.75,5.42Z"/>
          <path class="cls-1" d="M743.11,849.86c2.09,3.05,2.64,6.83,1.7,11.33-1.65,7.83-2.47,11.75-4.12,19.58-3.48-.73-5.22-1.09-8.7-1.79,1.48-7.39,2.23-11.08,3.71-18.47.53-2.66.25-4.84-.87-6.55-1.12-1.71-2.9-2.8-5.33-3.27-2.47-.48-4.56-.13-6.26,1.04-1.69,1.17-2.78,3.08-3.27,5.75-1.37,7.41-2.05,11.12-3.41,18.53-3.49-.64-5.24-.96-8.73-1.57,1.96-11.2,3.92-22.4,5.87-33.6,3.62.63,5.42.96,9.03,1.62-.31,1.67-.46,2.51-.77,4.18,1.47-1.23,3.21-2.09,5.24-2.56,2.02-.47,4.16-.49,6.39-.06,4.25.83,7.44,2.79,9.52,5.84Z"/>
          <path class="cls-1" d="M754.43,856.77c1.99-2.29,4.38-3.87,7.15-4.72,2.77-.85,5.68-.92,8.71-.21,2.65.62,4.84,1.67,6.58,3.15,1.74,1.48,3.01,3.12,3.83,4.93.47-1.89.7-2.83,1.17-4.72,3.6.89,5.4,1.34,9,2.27-2.83,11.01-5.65,22.02-8.48,33.03-3.47-.89-5.21-1.33-8.69-2.19.48-1.94.72-2.9,1.2-4.84-1.5,1.28-3.35,2.19-5.56,2.73-2.2.54-4.58.51-7.13-.08-2.88-.68-5.35-2-7.4-3.97-2.05-1.98-3.49-4.43-4.31-7.36-.82-2.93-.87-6.1-.13-9.51.73-3.37,2.09-6.2,4.08-8.5ZM777.8,866.22c-.48-1.66-1.35-3.06-2.6-4.18-1.25-1.13-2.7-1.89-4.35-2.28-1.65-.39-3.27-.37-4.84.07-1.57.43-2.96,1.29-4.16,2.55-1.2,1.26-2.02,2.9-2.48,4.9-.45,2-.42,3.85.09,5.55.51,1.7,1.37,3.1,2.58,4.23,1.21,1.12,2.6,1.87,4.18,2.24,1.62.38,3.22.36,4.83-.08,1.6-.44,2.99-1.28,4.18-2.53,1.19-1.25,2.04-2.89,2.54-4.92s.51-3.88.03-5.54Z"/>
        </g>
        <path class="cls-2" d="M565.08,683.47c27.14,7.81,58.07,7.39,82.88-7.03,0,0,.17,6.91.17,6.91-9.43-4.13-19.78-6.18-30.41-8.12-5.32-.98-10.73-1.95-16.18-3.25-5.14-.97-11.47-4.5-11.63-10.65-.57-7.6,7.61-11.59,13.9-12.38,8.24-1.05,16.38-3.2,23.99-6.5,4.9-2.21,23.15-10.84,19.59-17.3-3.7-4.9-10.83-5.93-16.61-8.66-4.5-1.87-10.06-5.52-12.91-10.27-7.24-11.55-1.52-26.08,7.59-34.46,7.06-6.58,16.01-10.62,22.5-17.07,5.58-5.72,9.1-15.79,3.34-22.61,0,0,.98-1.2.98-1.2,11.11,7.31,7.3,24.15-.48,32.66-6.81,8.42-15.94,13.07-20.66,22.49-2.04,4.37-3.22,9.97.95,13.14,6.02,4.22,14.78,5.07,21.18,9.83,7.24,4.66,12.03,13.59,9.41,22.31-3.49,10.74-12.86,15.48-22.05,19.91-11.12,5.08-23.07,8.29-35.25,9.26-1.57.17-3.48.57-4.66,1.29-.06.05-.01,0,.09-.25.13-.22.12-.62.12-.75-.03-.14-.13-.39-.22-.53-.23-.27-.01.13.69.48.71.37,1.64.73,2.83,1.06,5.04,1.44,10.24,2.72,15.52,4.01,10.53,2.58,21.52,5.37,31.73,10.57,0,0,6.92,3.53,6.92,3.53l-6.76,3.38c-20.26,10.17-43.85,11.94-65.84,7.71-7.25-1.41-14.35-3.44-21.22-6.03l.49-1.47h0Z"/>
      </g>
    </g>
  </g>
</svg>