<?xml version="1.0" encoding="UTF-8"?>
<svg xmlns="http://www.w3.org/2000/svg" version="1.1" viewBox="0 0 2000 602">
  <defs>
    <style>
      .cls-1 {
        fill: #231f20;
      }

      .cls-2 {
        font-size: 41.02px;
      }

      .cls-3 {
        font-family: Poppins-Medium, Poppins;
        font-weight: 500;
      }

      .cls-4 {
        fill: #9f7f46;
      }

      .cls-5 {
        font-family: Poppins-BoldItalic, Poppins;
        font-style: italic;
        font-weight: 700;
      }
    </style>
  </defs>
  <!-- Generator: Adobe Illustrator 28.6.0, SVG Export Plug-In . SVG Version: 1.2.0 Build 709)  -->
  <g>
    <g id="Layer_1">
      <g>
        <g>
          <g>
            <path class="cls-4" d="M1710.59,260.44l11.2,6.57-5.38,9.7-10.99-6.46-4.52,8.08-11.2-6.57,5.39-9.7,10.99,6.46,4.52-8.08ZM1732.89,307.08h0c.86,0,1.29.93,1.29,2.8,0,5.17-1.33,7.76-3.98,7.76-5.53,0-10.22-2.53-14.06-7.6-3.84-5.06-6.63-7.59-8.35-7.59-5.03,0-9.69,4.63-14,13.9-2.01,5.17-4.13,10.23-6.36,15.19-2.66,5.03-5.75,7.54-9.26,7.54s-7.04-2.58-10.13-7.75c-3.09-4.67-4.63-9.8-4.63-15.4,0-4.31.43-8.51,1.29-12.6.86-3.8,1.69-5.64,2.48-5.49.57,0,.65,1.11.22,3.34-.57,3.66-.86,6.89-.86,9.69,0,5.75,1.17,10.49,3.5,14.22,2.33,3.73,5.05,5.6,8.13,5.6,3.52,0,7.86-6.1,13.03-18.31,2.94-6.89,6.32-12.35,10.13-16.37,3.23-3.38,6.1-5.06,8.62-5.06,1.65,0,3.12,1.01,4.42,3.02,1.29,2.01,2.69,4.02,4.2,6.03,3.52,5.03,8.29,7.4,14.33,7.11Z"/>
            <path class="cls-4" d="M1745.06,258.82l11.2,6.57-5.39,9.69-11.2-6.57,5.38-9.7ZM1762.51,303.74h0c1,0,1.51,1.01,1.51,3.02,0,5.17-1.36,7.75-4.09,7.75-3.16-.14-5.71-1.33-7.65-3.55-1.22-1.36-2.15-3.84-2.8-7.43-5.46,9.48-11.88,14.22-19.28,14.22-1,0-1.51-1.01-1.51-3.02,0-5.17,1.36-7.76,4.09-7.76,5.1-.29,9.19-1.94,12.28-4.95,1.44-2.3,3.34-5.21,5.71-8.72,1.22-1.72,2.15-2.41,2.8-2.04.29.14.29.57,0,1.29-1.22,2.8-.54,5.6,2.05,8.4,1.87,1.87,4.16,2.8,6.89,2.8Z"/>
            <path class="cls-4" d="M1778.77,324.53l11.2,6.57-5.38,9.7-11.2-6.57,5.38-9.7ZM1835,284.14h0c0,.57-.66,2.51-1.99,5.82-1.33,3.3-2.17,4.92-2.53,4.85-2.15-.5-4.88-.58-8.19-.22-8.83.93-18.24,3.73-28.22,8.4-16.52,7.68-27.9,11.52-34.15,11.52-1,0-1.51-1.01-1.51-3.02,0-5.17,1.36-7.75,4.09-7.75,6.1,0,17.02-3.77,32.75-11.31-9.91-2.15-19.79-3.63-29.62-4.42-5.03-.43-9.01-.5-11.96-.22-.86.07-1.29-.18-1.29-.75s.7-2.39,2.1-5.44c1.4-3.05,2.42-4.65,3.07-4.79,10.2,0,18.82.79,25.85,2.37,17.45,4.02,34.22,5.53,50.3,4.52.86-.07,1.29.07,1.29.43Z"/>
            <path class="cls-4" d="M1790.73,260.55h0c0,7.97-1.76,13.64-5.28,17.02-3.23,3.09-12.49,5.75-27.79,7.97v-8.62c.43-.57,5.42-1.83,14.97-3.77,8.98-1.79,13.47-3.19,13.47-4.2,0-2.37-1.69-12.75-5.06-31.13-3.81-20.82-6.32-36.41-7.54-46.75-1.29-1.15-1.79-2.01-1.51-2.58.57-1.65,1.47-4.02,2.69-7.11,1.01-2.51,1.58-3.77,1.72-3.77.43,0,2.55,4.2,6.36,12.6,4.45,9.26,6.39,14.04,5.82,14.33-.57.43-1.69-.29-3.34-2.16-.43-.5-1.69-1.76-3.77-3.77,1.8,9.98,3.48,19.96,5.06,29.95,2.8,16.23,4.2,26.89,4.2,31.99Z"/>
            <path class="cls-4" d="M1478.03,260.44l11.2,6.57-5.38,9.7-10.99-6.46-4.52,8.08-11.2-6.57,5.39-9.7,10.99,6.46,4.52-8.08ZM1500.33,307.08h0c.86,0,1.29.93,1.29,2.8,0,5.17-1.33,7.76-3.98,7.76-5.53,0-10.22-2.53-14.06-7.6-3.84-5.06-6.63-7.59-8.35-7.59-5.03,0-9.69,4.63-14,13.9-2.01,5.17-4.13,10.23-6.36,15.19-2.66,5.03-5.75,7.54-9.26,7.54s-7.04-2.58-10.13-7.75c-3.09-4.67-4.63-9.8-4.63-15.4,0-4.31.43-8.51,1.29-12.6.86-3.8,1.69-5.64,2.48-5.49.57,0,.65,1.11.22,3.34-.57,3.66-.86,6.89-.86,9.69,0,5.75,1.17,10.49,3.5,14.22,2.33,3.73,5.05,5.6,8.13,5.6,3.52,0,7.86-6.1,13.03-18.31,2.94-6.89,6.32-12.35,10.13-16.37,3.23-3.38,6.1-5.06,8.62-5.06,1.65,0,3.12,1.01,4.42,3.02,1.29,2.01,2.69,4.02,4.2,6.03,3.52,5.03,8.29,7.4,14.33,7.11Z"/>
            <path class="cls-4" d="M1512.71,329.16l11.2,6.57-5.38,9.69-11.2-6.57,5.38-9.7ZM1529.95,303.74h0c1,0,1.51,1.01,1.51,3.02,0,5.17-1.36,7.75-4.09,7.75-3.16-.14-5.71-1.33-7.65-3.55-1.22-1.36-2.15-3.84-2.8-7.43-5.46,9.48-11.88,14.22-19.28,14.22-1,0-1.51-1.01-1.51-3.02,0-5.17,1.36-7.76,4.09-7.76,5.1-.29,9.19-1.94,12.28-4.95,1.44-2.3,3.34-5.21,5.71-8.72,1.22-1.72,2.15-2.41,2.8-2.04.29.14.29.57,0,1.29-1.22,2.8-.54,5.6,2.05,8.4,1.87,1.87,4.16,2.8,6.89,2.8Z"/>
            <path class="cls-4" d="M1566.79,309.77h0c1.01,0,1.51,1.01,1.51,3.02,0,5.17-1.36,7.75-4.09,7.75-9.19,0-14.68-7.14-16.48-21.43-.5,2.66-1.29,4.74-2.37,6.25-4.38,6.1-10.38,9.15-17.99,9.15-1,0-1.51-1.01-1.51-3.02,0-5.17,1.36-7.76,4.09-7.76,3.52,0,6.82-.86,9.91-2.59,3.59-2.01,5.28-4.45,5.06-7.32-.5-7.04-2.91-22.94-7.22-47.72-2.15-12.93-4.92-29.37-8.29-49.33-.14-.58.41-2.96,1.67-7.16,1.26-4.2,2.03-6.3,2.32-6.3.5,0,3.98,18.78,10.45,56.34,3.38,19.25,5.71,33.61,7,43.09,1.51,10.63,3.55,17.95,6.14,21.97,2.23,3.38,5.49,5.06,9.8,5.06Z"/>
            <path class="cls-4" d="M1624.42,295.88h0c.29-2.08-1.42-4.26-5.12-6.52-3.7-2.26-7.67-3.46-11.9-3.61-11.06-.14-23.19,7.79-36.41,23.81,9.84,0,21.36-1.83,34.58-5.5,12.35-3.59,18.64-6.32,18.85-8.18ZM1631.2,290.6h0c-.14,4.52-2.73,9.44-7.75,14.76-6.03,6.46-18.24,11.1-36.62,13.9-5.89.86-13.46,1.29-22.73,1.29-1,0-1.51-1.04-1.51-3.12,0-5.1,1.4-7.65,4.2-7.65.29-.43,2.94-3.95,7.97-10.56,1.01-1.79,1.51-5.28,1.51-10.45,0-9.55-1.83-25.85-5.49-48.9-2.23-13.72-4.38-27.47-6.46-41.25-.86-1.08-1.58-2.26-2.16-3.56-.14-.14.67-1.9,2.42-5.28,1.76-3.38,2.78-5.06,3.07-5.06.14,0,2.51,5.13,7.11,15.4,2.3,5.6,3.16,8.62,2.59,9.05-.86.43-2.62-1.18-5.28-4.85,1.51,9.41,3.66,23.37,6.46,41.9,1.87,13.21,2.8,23.66,2.8,31.35s-.86,13.03-2.59,16.7c11.71-12.78,22.37-19.17,31.99-19.17,6.89,0,12.24,1.83,16.05,5.49,2.94,3.09,4.42,6.43,4.42,10.02Z"/>
            <path class="cls-4" d="M1653.07,284.57h0c-.57,12.35-3.57,20.34-8.99,23.97-5.42,3.63-14.24,6.37-26.45,8.24-10.2,1.65-20.5,2.48-30.91,2.48-.86,0-1.29-1.04-1.29-3.12,0-5.1,1.33-7.65,3.98-7.65,8.47,0,19.86-1.04,34.15-3.12,3.95-.57,8.58-1.76,13.9-3.55,7.04-2.51,10.63-4.78,10.77-6.79.29-6.03-1.54-20.39-5.5-43.09-2.94-16.45-5.89-32.93-8.83-49.44-.29-1.01-.5-2.3-.65-3.88-.29-.79-.79-1.76-1.51-2.91-.14-.14.52-1.94,1.99-5.38,1.47-3.45,2.35-5.17,2.64-5.17s3.66,6.89,10.12,20.68c1.94,3.95,2.59,6.1,1.94,6.46-.72.58-2.84-.83-6.36-4.2,7.83,43.66,11.49,69.15,10.99,76.48Z"/>
            <path class="cls-4" d="M1685.49,295.66h0c0,3.23-.36,6.53-1.08,9.91-1.22,6.25-2.26,9.37-3.12,9.37-.5,0-.83-1.29-.97-3.88-.36-5.53-.54-8.62-.54-9.26-1.36-13.5-4.81-36.16-10.34-67.97-1.58-8.83-3.66-22.05-6.25-39.64-1.29-1.15-1.83-2.01-1.61-2.59.57-1.58,1.47-3.91,2.69-7,1-2.59,1.61-3.88,1.83-3.88.43,0,2.58,4.16,6.46,12.49,4.31,9.26,6.18,14.11,5.6,14.54-.57.36-1.69-.36-3.34-2.16-.5-.57-1.76-1.87-3.77-3.88,2.51,13.28,6.18,34.43,10.99,63.44,2.3,15.15,3.45,25.31,3.45,30.48Z"/>
            <path class="cls-4" d="M1283.31,306.99l11.2,6.57-5.38,9.7-11.2-6.57,5.38-9.69ZM1307.44,262.28h0c-8.69-1.51-21.11-2.26-37.27-2.26-12.06,0-18.1.68-18.1,2.04,0,.43,2.8,2.41,8.4,5.93,6.46,4.16,10.77,8.08,12.93,11.74,7.11-5.17,18.46-10.99,34.04-17.45ZM1348.48,362.89h0c.14.29-4.13,2.19-12.82,5.71-8.98,3.66-15.01,5.85-18.1,6.57-4.38,1.22-9.91,1.83-16.59,1.83-19.68,0-34-2.94-42.98-8.83-9.55-6.18-14.33-16.62-14.33-31.35,0-8.04,1.62-16.55,4.85-25.53,4.09-11.63,10.2-20.75,18.31-27.36-4.74-3.09-9.51-6.25-14.33-9.48-5.31-3.59-7.97-7.36-7.97-11.31,0-2.37,1.04-5.03,3.12-7.97,2.66-3.81,10.31-5.71,22.94-5.71,10.56,0,23.12.68,37.7,2.05,12.78,1.15,19.17,1.87,19.17,2.16,0,.72-1.47,4.24-4.42,10.56-10.99,5.03-23.77,10.84-38.35,17.45-3.09,1.65-6.03,3.27-8.83,4.85.14.72.07,1.76-.22,3.12-.29,1.44-.57,2.16-.86,2.16s-.83-.5-1.62-1.51c-.29-.14-.72-.5-1.29-1.08-6.75,3.52-12.35,8.94-16.8,16.26-4.67,7.97-7,16.66-7,26.07,0,10.56,3.73,18.42,11.2,23.59,9.12,6.46,24.81,9.69,47.07,9.69,11.71,0,22.87-.5,33.5-1.51,5.74-.58,8.62-.72,8.62-.43Z"/>
            <path class="cls-4" d="M1373.04,303.22h0c1,0,1.51,1.01,1.51,3.02,0,5.17-1.36,7.75-4.09,7.75-14.36,0-22.69-11.49-24.99-34.47-4.81-48.97-10.09-79.28-15.83-90.91-.14-.36.32-2.33,1.4-5.92,1.08-3.59,1.72-5.38,1.94-5.38.36,0,1.26,1.79,2.69,5.38,1.72,4.24,3.09,8.4,4.09,12.49,3.02,12.49,5.57,27.5,7.65,45.02,2.8,24.27,4.27,36.84,4.42,37.7,2.66,16.88,9.73,25.31,21.22,25.31Z"/>
            <path class="cls-4" d="M1399.64,242.89l11.2,6.57-5.39,9.7-11.2-6.57,5.39-9.7ZM1390.05,294.81h0c.14-.79.07-4.92-.22-12.39-2.66,3.81-5.82,10.27-9.48,19.39,1.58-.43,3.63-1.54,6.14-3.34,2.08-1.72,3.27-2.94,3.55-3.66ZM1419.14,309.35h0c1.01,0,1.51.93,1.51,2.8,0,5.17-1.29,7.76-3.88,7.76-3.88,0-7.43-1.94-10.66-5.82-3.23-3.88-5.71-5.82-7.43-5.82-1.94,0-4.09,1.06-6.46,3.18-2.37,2.12-3.55,4.15-3.55,6.08,0,5.1,3.77,11.42,11.31,18.96.14.14-.04,1.8-.54,4.95-.5,3.16-.93,4.74-1.29,4.74-1.44,0-3.7-.83-6.79-2.48-4.09-2.01-7.25-4.78-9.48-8.29-4.09-6.25-5.78-13.54-5.06-21.87-2.66.43-4.81.57-6.46.43-1,0-1.51-1.04-1.51-3.12,0-5.1,1.4-7.65,4.2-7.65,1.65,0,3.27-.25,4.85-.75,2.66-8.04,5.89-15.55,9.7-22.51.72-1.15,1.69-2.98,2.91-5.49.57-1.72,1.29-3.48,2.16-5.28.93,0,1.4,4.7,1.4,14.11,0,8.69-2.3,16.26-6.89,22.73-1.29,2.08-3.55,4.13-6.79,6.14.58,5.46,2.05,9.8,4.42,13.03.58-10.99,4.09-18.92,10.56-23.81,2.8-2.08,5.06-3.12,6.79-3.12s3.88,1.72,6.68,5.17c3.23,3.95,6.68,5.92,10.34,5.92Z"/>
            <path class="cls-4" d="M1455.33,299.45h0c-.29-1.87-1.47-3.41-3.55-4.63-1.72-1.01-3.2-1.44-4.42-1.29-1.8.14-2.8.64-3.02,1.51-.07.43,1.31,1.29,4.15,2.59,2.84,1.29,5.12,1.9,6.84,1.83ZM1463.62,301.92h0c0,.93-.83,2.77-2.48,5.5-1.72,2.94-3.16,4.45-4.31,4.52-1.36.14-4.17-.65-8.4-2.37-4.74-1.94-8.69-4.09-11.85-6.46-5.17,11.27-11.81,16.91-19.93,16.91-1,0-1.51-1.01-1.51-3.02,0-5.17,1.36-7.75,4.09-7.75,3.88,0,7.22-1.33,10.02-3.99,2.15-2.01,4.7-5.6,7.65-10.77.72-1.29,1.58-2.59,2.59-3.88.21,0,.61.22,1.18.65,3.02-5.46,6.46-8.37,10.34-8.72,3.02-.29,5.67,1.22,7.97,4.52,3.09,4.38,4.63,9.34,4.63,14.86Z"/>
            <path class="cls-4" d="M1133.81,267.46l11.2,6.57-5.38,9.7-10.99-6.46-4.52,8.08-11.2-6.57,5.39-9.7,10.99,6.46,4.52-8.08ZM1156.1,314.09h0c.86,0,1.29.93,1.29,2.8,0,5.17-1.33,7.76-3.98,7.76-5.53,0-10.22-2.53-14.06-7.6-3.84-5.06-6.63-7.59-8.35-7.59-5.03,0-9.69,4.63-14,13.9-2.01,5.17-4.13,10.23-6.36,15.19-2.66,5.03-5.75,7.54-9.26,7.54s-7.04-2.58-10.13-7.75c-3.09-4.67-4.63-9.8-4.63-15.4,0-4.31.43-8.51,1.29-12.6.86-3.8,1.69-5.64,2.48-5.49.58,0,.65,1.11.22,3.34-.58,3.66-.86,6.89-.86,9.69,0,5.75,1.17,10.49,3.5,14.22,2.33,3.73,5.05,5.6,8.13,5.6,3.52,0,7.86-6.1,13.03-18.31,2.94-6.89,6.32-12.35,10.13-16.37,3.23-3.38,6.1-5.06,8.62-5.06,1.65,0,3.12,1.01,4.42,3.02,1.29,2.01,2.69,4.02,4.2,6.03,3.52,5.03,8.29,7.4,14.33,7.11Z"/>
            <path class="cls-4" d="M1168.27,265.84l11.2,6.57-5.39,9.69-11.2-6.57,5.38-9.7ZM1185.73,310.76h0c1,0,1.51,1.01,1.51,3.02,0,5.17-1.36,7.75-4.09,7.75-3.16-.14-5.71-1.33-7.65-3.55-1.22-1.36-2.15-3.84-2.8-7.43-5.46,9.48-11.88,14.22-19.28,14.22-1,0-1.51-1.01-1.51-3.02,0-5.17,1.36-7.76,4.09-7.76,5.1-.29,9.19-1.94,12.28-4.95,1.44-2.3,3.34-5.21,5.71-8.72,1.22-1.72,2.15-2.41,2.8-2.04.29.14.29.57,0,1.29-1.22,2.8-.54,5.6,2.05,8.4,1.87,1.87,4.16,2.8,6.89,2.8Z"/>
            <path class="cls-4" d="M1201.99,331.54l11.2,6.57-5.38,9.7-11.2-6.57,5.38-9.7ZM1258.22,291.15h0c0,.57-.66,2.51-1.99,5.82-1.33,3.3-2.17,4.92-2.53,4.85-2.15-.5-4.88-.58-8.19-.22-8.83.93-18.24,3.73-28.22,8.4-16.52,7.68-27.9,11.52-34.15,11.52-1,0-1.51-1.01-1.51-3.02,0-5.17,1.36-7.75,4.09-7.75,6.1,0,17.02-3.77,32.75-11.31-9.91-2.15-19.79-3.63-29.62-4.42-5.03-.43-9.01-.5-11.96-.22-.86.07-1.29-.18-1.29-.75s.7-2.39,2.1-5.44c1.4-3.05,2.42-4.65,3.07-4.79,10.2,0,18.82.79,25.85,2.37,17.45,4.02,34.22,5.53,50.3,4.52.86-.07,1.29.07,1.29.43Z"/>
            <path class="cls-4" d="M1213.95,267.56h0c0,7.97-1.76,13.64-5.28,17.02-3.23,3.09-12.49,5.75-27.79,7.97v-8.62c.43-.57,5.42-1.83,14.97-3.77,8.98-1.79,13.47-3.19,13.47-4.2,0-2.37-1.69-12.75-5.06-31.13-3.81-20.82-6.32-36.41-7.54-46.75-1.29-1.15-1.79-2.01-1.51-2.58.57-1.65,1.47-4.02,2.69-7.11,1.01-2.51,1.58-3.77,1.72-3.77.43,0,2.55,4.2,6.36,12.6,4.45,9.26,6.39,14.04,5.82,14.33-.57.43-1.69-.29-3.34-2.16-.43-.5-1.69-1.76-3.77-3.77,1.8,9.98,3.48,19.96,5.06,29.95,2.8,16.23,4.2,26.89,4.2,31.99Z"/>
            <path class="cls-4" d="M1241.95,268.1h0c0,5.24-.39,9.8-1.18,13.68-.65,3.45-1.4,5.17-2.26,5.17-.5,0-.86-1.51-1.08-4.52-.22-3.02-.47-6.03-.75-9.05-.93-8.62-2.76-20.72-5.49-36.3-2.94-16.73-4.88-28.8-5.82-36.19-.86-.65-1.29-1.18-1.29-1.61,0-.36.66-2.37,1.99-6.03,1.33-3.66,2.1-5.49,2.32-5.49.43,0,2.32,3.77,5.66,11.31,3.34,7.54,5.01,12.17,5.01,13.9,0,.29-.07.47-.22.54-.79.43-2.62-1.26-5.49-5.06,1.72,9.69,3.41,19.42,5.06,29.19,2.37,14,3.55,24.17,3.55,30.49Z"/>
            <path class="cls-4" d="M932.8,287.98h0c0,7.32-2.44,13.89-7.32,19.71-2.51,2.87-10.38,8.22-23.59,16.05-13.86,8.12-24.24,13.29-31.13,15.51-.21.07-9.51,1.62-27.9,4.63-7.4,1.22-11.78,1.83-13.14,1.83-.58,0-.86-.07-.86-.22,0-.5,4.2-2.33,12.6-5.49,14.79-5.46,26.57-10.2,35.33-14.22,12.49-5.67,24.45-12.07,35.87-19.17,10.77-6.68,16.16-10.88,16.16-12.6,0-.36-2.37-5.28-7.11-14.76-2.59-5.1-4.42-9.69-5.49-13.79-.72-.36-1.08-.86-1.08-1.51,0-.79.29-2.73.86-5.82.65-3.45,1.19-5.17,1.62-5.17.21,0,1.47,1.26,3.77,3.77,5.6,6.18,8.19,9.48,7.75,9.91-.36.36-2.15-.18-5.38-1.61.21,1.15,1.87,4.6,4.95,10.34,2.73,5.1,4.09,9.3,4.09,12.6Z"/>
            <path class="cls-4" d="M973.95,303.28h0c1,0,1.51,1.01,1.51,3.02,0,5.17-1.36,7.75-4.09,7.75-10.56,0-17.16-10.91-19.82-32.74l-4.85-38.99c-3.45-26.21-7.36-44.34-11.74-54.4-.14-.36.23-2.26,1.13-5.71.9-3.45,1.45-5.17,1.67-5.17.29,0,1.11,1.76,2.48,5.28,1.65,3.95,2.98,7.9,3.98,11.85,2.8,11.06,5.32,25.28,7.54,42.66,3.23,24.63,5.21,38.96,5.93,42.98,2.59,15.66,8.01,23.48,16.26,23.48Z"/>
            <path class="cls-4" d="M1044.83,181.34h0c0,4.09-1.44,8.94-4.31,14.54-3.66,7.25-8.47,15.01-14.43,23.27-2.3,3.09-3.59,4.52-3.88,4.31-.14-.07-.22-.22-.22-.43,0-.86,1.54-4.24,4.63-10.13s6.46-11.35,10.13-16.37c2.15-2.94,3.23-5.17,3.23-6.68,0-2.59-1.47-3.88-4.42-3.88-6.61,0-22.98,7.29-49.12,21.87-21.4,11.85-32.1,18.46-32.1,19.82,0,.93,4.7,4.27,14.11,10.02,1.94,1.15,2.76,2.01,2.48,2.59-.29.58-1.29.54-3.02-.11-.58-.14-1.62-.32-3.12-.54,2.44,2.37,11.49,8.72,27.14,19.07,12.28,8.11,18.42,16.19,18.42,24.24,0,6.75-1.11,11.6-3.34,14.54-3.38,4.6-8.58,8.51-15.62,11.74-7.04,3.23-13.72,4.85-20.04,4.85-1,0-1.51-1.01-1.51-3.02,0-5.17,1.36-7.75,4.09-7.75,6.89,0,14.33-2.12,22.3-6.36,7.33-3.88,10.99-7,10.99-9.37,0-5.46-6.03-12.14-18.1-20.04-15.51-10.13-25.67-17.77-30.49-22.94-2.73-2.94-5.46-5.03-8.19-6.25-.86-.36-1.29-1.54-1.29-3.55,0-5.96,1.54-11.06,4.63-15.3,4.45-6.03,18.78-15.15,42.98-27.36,22.12-11.13,36.19-16.7,42.22-16.7,3.88,0,5.82,1.97,5.82,5.92Z"/>
            <path class="cls-4" d="M1032.55,195.24l11.2,6.57-5.38,9.7-11.2-6.57,5.38-9.7ZM1078.54,303.28h0c1,0,1.51,1.01,1.51,3.02,0,5.17-1.36,7.75-4.09,7.75-11.2,0-18.53-7.75-21.97-23.26-.29,4.38-.97,7.5-2.05,9.37-3.73,6.46-11.17,13.64-22.3,21.54-11.71,8.26-20.93,12.39-27.68,12.39-5.03,0-8.83-1.58-11.42-4.74-2.08-2.51-3.12-5.6-3.12-9.26,0-5.96.9-11.6,2.69-16.91,1.58-4.6,2.94-6.89,4.09-6.89.36,0,.54.14.54.43,0,.14-.65,1.96-1.94,5.44-1.29,3.48-1.94,6.73-1.94,9.75,0,4.24.93,7.11,2.8,8.62,1.65,1.29,4.6,1.94,8.83,1.94,8.19,0,19.03-5.28,32.53-15.83,12.21-9.62,18.31-15.8,18.31-18.53,0-2.37-1.54-7.83-4.63-16.37-3.45-9.26-7.32-18.17-11.63-26.71-1.36-2.66-2.05-4.27-2.05-4.85,0-7.54.32-11.31.97-11.31.29,0,1,.79,2.15,2.37,9.26,13.07,15.4,26.78,18.42,41.15.57,3.81,1.61,9.48,3.12,17.02,2.51,9.26,8.8,13.9,18.85,13.9Z"/>
            <path class="cls-4" d="M1098.36,238l11.2,6.57-5.39,9.7-10.99-6.46-4.52,8.08-11.2-6.57,5.38-9.7,10.99,6.46,4.52-8.08ZM1108.27,300.05h0c1,0,1.51,1.01,1.51,3.02,0,5.17-1.36,7.75-4.09,7.75-3.16-.14-5.71-1.33-7.65-3.55-1.22-1.36-2.15-3.84-2.8-7.43-5.46,9.48-11.88,14.22-19.28,14.22-1,0-1.51-1.01-1.51-3.02,0-5.17,1.36-7.76,4.09-7.76,5.1-.29,9.19-1.94,12.28-4.95,1.44-2.3,3.34-5.21,5.71-8.72,1.22-1.72,2.15-2.41,2.8-2.04.29.14.29.57,0,1.29-1.22,2.8-.54,5.6,2.05,8.4,1.87,1.87,4.16,2.8,6.89,2.8Z"/>
            <path class="cls-4" d="M1121.95,294.23h0c0,10.99-5.46,16.48-16.37,16.48-1,0-1.51-.93-1.51-2.8,0-5.17,1.4-7.76,4.2-7.76,2.51,0,4.78-.5,6.79-1.51,1.94-.79,2.91-1.54,2.91-2.26s-.52-2.03-1.56-3.93c-1.04-1.9-1.56-2.85-1.56-2.85,0-.5.31-2.23.92-5.17.61-2.94,1.06-4.42,1.35-4.42.57,0,1.44,1.18,2.59,3.55,1.51,3.09,2.26,6.64,2.26,10.66Z"/>
            <path class="cls-4" d="M752.27,316.16h0c1,0,1.51,1.01,1.51,3.02,0,5.17-1.36,7.75-4.09,7.75-14.36,0-22.69-11.49-24.99-34.47-4.81-48.97-10.09-79.28-15.83-90.91-.14-.36.32-2.33,1.4-5.92,1.08-3.59,1.72-5.38,1.94-5.38.36,0,1.26,1.79,2.69,5.38,1.72,4.24,3.09,8.4,4.09,12.49,3.02,12.49,5.57,27.5,7.65,45.02,2.8,24.27,4.27,36.84,4.42,37.7,2.66,16.88,9.73,25.31,21.22,25.31Z"/>
            <path class="cls-4" d="M764.55,268.01l11.2,6.57-5.39,9.69-11.2-6.57,5.38-9.7ZM782,312.93h0c1,0,1.51,1.01,1.51,3.02,0,5.17-1.36,7.75-4.09,7.75-3.16-.14-5.71-1.33-7.65-3.55-1.22-1.36-2.15-3.84-2.8-7.43-5.46,9.48-11.88,14.22-19.28,14.22-1,0-1.51-1.01-1.51-3.02,0-5.17,1.36-7.76,4.09-7.76,5.1-.29,9.19-1.94,12.28-4.95,1.44-2.3,3.34-5.21,5.71-8.72,1.22-1.72,2.15-2.41,2.8-2.04.29.14.29.57,0,1.29-1.22,2.8-.54,5.6,2.05,8.4,1.87,1.87,4.16,2.8,6.89,2.8Z"/>
            <path class="cls-4" d="M773.6,228.26l11.2,6.57-5.39,9.7-11.2-6.57,5.38-9.69ZM854.49,293.32h0c0,.57-.66,2.51-1.99,5.82-1.33,3.3-2.17,4.92-2.53,4.85-2.15-.5-4.88-.58-8.19-.22-8.83.93-18.24,3.73-28.22,8.4-16.52,7.68-27.9,11.52-34.15,11.52-1,0-1.51-1.01-1.51-3.02,0-5.17,1.36-7.75,4.09-7.75,6.1,0,17.02-3.77,32.75-11.31-9.91-2.15-19.79-3.63-29.62-4.42-5.03-.43-9.01-.5-11.96-.22-.86.07-1.29-.18-1.29-.75s.7-2.39,2.1-5.44c1.4-3.05,2.42-4.65,3.07-4.79,10.2,0,18.82.79,25.85,2.37,17.45,4.02,34.22,5.53,50.3,4.52.86-.07,1.29.07,1.29.43Z"/>
            <path class="cls-4" d="M832.74,319.39l11.2,6.57-5.39,9.69-10.99-6.46-4.52,8.08-11.2-6.57,5.38-9.69,10.99,6.46,4.52-8.08ZM835.64,270.92h0c1.01,0,1.51,1.01,1.51,3.02,0,5.17-1.36,7.75-4.09,7.75-3.45,0-6.36-1.24-8.72-3.71-2.37-2.48-3.55-5.4-3.55-8.78,0-1.79-.65-2.69-1.94-2.69-1.87,0-4.63,2.44-8.29,7.32-5.03,6.75-10.77,11.81-17.23,15.19-5.67,2.94-11.1,5.17-16.26,6.68v-9.69c9.41-2.37,17.02-5.64,22.83-9.8,4.38-3.16,8.12-6.64,11.2-10.45,3.09-3.81,5.78-6.57,8.08-8.29,2.94-2.23,4.6-2.48,4.95-.75.72,4.38,1.44,7.25,2.16,8.62,1.8,3.73,4.92,5.6,9.37,5.6Z"/>
            <path class="cls-4" d="M879.38,215.12l11.2,6.57-5.38,9.7-10.88-6.36-4.52,8.19-11.2-6.57,5.39-9.69,10.88,6.36,4.52-8.19ZM867.42,200.15l11.2,6.57-5.38,9.7-11.2-6.57,5.38-9.69ZM903.83,255.51h0c0,12.42-3.77,18.63-11.31,18.63-6.46,0-10.12-3.27-10.99-9.8-.29.65-1.33,2.66-3.12,6.03-.86,2.01-2.55,3.91-5.06,5.71-2.8,2.08-5.67,3.12-8.62,3.12-3.23,0-5.98-1.22-8.24-3.66s-3.32-5.28-3.18-8.51c-1.36,2.08-3.52,4.88-6.46,8.4-4.24,4.09-8.87,6.14-13.9,6.14-1,0-1.51-.93-1.51-2.8,0-5.17,1.4-7.76,4.2-7.76,6.18,0,12.42-4.42,18.74-13.25,1.01-1.29,1.9-2.26,2.69-2.91.86-.72,1.44-1,1.72-.86.43.14.5.57.22,1.29-1.01,2.08-1.51,3.88-1.51,5.38,0,4.81,3.23,7.22,9.7,7.22s10.95-3.73,13.89-11.2c.72-2.23,1.44-3.91,2.16-5.06,1.22-1.79,2.19-2.4,2.91-1.83.14.14-.07,1.11-.65,2.91-.86,2.37-.29,4.7,1.73,7,1.94,2.08,4.52,3.12,7.75,3.12s4.85-.79,4.85-2.37c0-.93-.38-1.87-1.13-2.8-.75-.93-1.13-1.65-1.13-2.16,0-.57.59-2.33,1.78-5.28,1.19-2.94,1.92-4.42,2.21-4.42s.75.97,1.4,2.91c.57,2.23.86,4.49.86,6.79Z"/>
            <path class="cls-4" d="M485.85,332.97c12.49-5.67,24.45-12.07,35.87-19.17,10.77-6.68,16.16-10.88,16.16-12.6,0-.36-2.37-5.28-7.11-14.76-2.59-5.1-4.42-9.69-5.49-13.79-.72-.36-1.08-.86-1.08-1.51,0-.79.29-2.73.86-5.82.65-3.45,1.19-5.17,1.62-5.17.21,0,1.47,1.26,3.77,3.77,5.6,6.18,8.19,9.48,7.75,9.91-.36.36-2.15-.18-5.38-1.61.21,1.15,1.87,4.6,4.95,10.34,2.73,5.1,4.09,9.3,4.09,12.6h0c0,7.32-2.44,13.89-7.32,19.71-2.51,2.87-10.38,8.22-23.59,16.05-13.86,8.12-24.24,13.29-31.13,15.51"/>
            <path class="cls-4" d="M579.56,304.54h0c-2.59-3.02-5.17-4.52-7.75-4.52-.58,0-1.31.32-2.21.97-.9.65-1.35,1.29-1.35,1.94,0,1.44,1.69,2.16,5.06,2.16,2.44,0,4.52-.18,6.25-.54ZM590.55,310.03h0c0,8.04-1.29,13.97-3.88,17.77-4.45,6.46-10.95,12.74-19.5,18.85-9.84,7.11-18.35,10.66-25.53,10.66s-12.06-2.33-15.73-7c-3.23-4.24-4.85-9.84-4.85-16.81,0-4.95.79-10.05,2.37-15.29,1.44-4.81,2.58-7.11,3.45-6.89.14.07.22.25.22.54,0-.07-.41,1.58-1.24,4.95-.83,3.38-1.24,6.68-1.24,9.91,0,5.53,1.62,10.16,4.85,13.9,3.23,3.73,7.65,5.6,13.25,5.6,7.83,0,17.45-4.24,28.87-12.71,10.34-7.75,15.51-13.07,15.51-15.94,0-1.87-.47-3.45-1.4-4.74-4.38,1.87-8.69,2.8-12.93,2.8-7.61,0-11.42-2.91-11.42-8.72,0-3.66,1.22-7.32,3.66-10.99,2.8-4.16,6-6.25,9.59-6.25,3.02,0,6.57,2.23,10.66,6.68,1.08,1.15,2.23,3.23,3.45,6.25s1.83,5.49,1.83,7.43Z"/>
            <path class="cls-4" d="M577.51,236.14l11.2,6.57-5.38,9.7-11.2-6.57,5.38-9.69ZM605.2,290.32h0c0,5.96-1.47,10.57-4.42,13.84-2.94,3.27-7.97,6.16-15.08,8.67v-10.23c2.87-.65,6.07-1.72,9.59-3.23,4.31-1.8,6.46-3.27,6.46-4.42,0-.86-1.29-3.59-3.88-8.19-3.02-5.39-5.13-10.23-6.36-14.54-.79-.79-1.18-1.44-1.18-1.94s.38-2.24,1.13-5.22c.75-2.98,1.28-4.47,1.56-4.47.5,0,2.21,1.62,5.12,4.85,2.91,3.23,4.25,5.17,4.04,5.82-.14.5-1.62.5-4.42,0,4.95,9.12,7.43,15.47,7.43,19.06Z"/>
            <path class="cls-4" d="M646.67,295.06h0c0,7.4-2.51,14.04-7.54,19.93-2.51,2.8-10.38,8.08-23.59,15.83-13.86,8.26-24.24,13.5-31.13,15.73-.14,0-9.41,1.54-27.79,4.63-7.33,1.15-11.74,1.72-13.25,1.72-.43,0-.65-.07-.65-.22,0-.43,4.2-2.26,12.6-5.49,14.65-5.46,26.39-10.16,35.22-14.11,12.49-5.75,24.42-12.14,35.76-19.17,10.77-6.82,16.16-11.02,16.16-12.6,0-.43-2.37-5.35-7.11-14.76-2.51-5.17-4.27-9.8-5.28-13.9-.72-.36-1.08-.9-1.08-1.62s.29-2.62.86-5.71c.58-3.38,1.08-5.06,1.51-5.06.14,0,1.33,1.26,3.55,3.77,5.74,6.18,8.4,9.48,7.97,9.91-.43.29-2.26-.32-5.49-1.83.29,1.22,1.97,4.7,5.06,10.45,2.8,5.1,4.2,9.26,4.2,12.49Z"/>
            <path class="cls-4" d="M687.71,310.46h0c1,0,1.51,1.01,1.51,3.02,0,5.17-1.36,7.75-4.09,7.75-10.56,0-17.16-10.91-19.82-32.74l-4.85-38.99c-3.45-26.21-7.36-44.34-11.74-54.4-.14-.36.23-2.26,1.13-5.71.9-3.45,1.45-5.17,1.67-5.17.29,0,1.11,1.76,2.48,5.28,1.65,3.95,2.98,7.9,3.98,11.85,2.8,11.06,5.32,25.28,7.54,42.66,3.23,24.63,5.21,38.96,5.93,42.98,2.59,15.66,8.01,23.48,16.26,23.48Z"/>
            <path class="cls-4" d="M689.86,230l11.2,6.57-5.39,9.7-11.2-6.57,5.39-9.7ZM699.88,284.93h0c-2.08-2.8-4.38-4.2-6.89-4.2-3.52,0-5.28,1.11-5.28,3.34,0,2.08,4.06,2.37,12.17.86ZM714.21,296.24h0c0,6.46-1.62,11.67-4.85,15.62-4.88,6.18-13,9.27-24.34,9.27-1,0-1.51-.93-1.51-2.8,0-5.17,1.4-7.76,4.2-7.76,6.46,0,12.14-1.4,17.02-4.2,3.66-2.23,5.49-4.13,5.49-5.71,0-3.09-2.87-4.63-8.62-4.63h-2.91c-5.39.57-8.01.86-7.86.86-6.32,0-9.48-3.23-9.48-9.69,0-4.88,1.54-9.16,4.63-12.82,2.59-3.23,5.42-4.85,8.51-4.85,4.02,0,8.08,2.59,12.17,7.76,5.03,6.18,7.54,12.49,7.54,18.96Z"/>
            <path class="cls-4" d="M908.07,166.9h0c-1.91,5.88-3.97,9.04-6.18,9.49-68.83,18.09-127.58,38.9-176.26,62.43-.15-.88.55-2.65,2.1-5.29s2.98-4.41,4.3-5.29c13.53-7.94,39.12-18.38,76.77-31.33,33.97-11.47,67.06-21.47,99.27-30Z"/>
            <path class="cls-4" d="M1181.2,251.4h0c0,2.65-.51,4.63-1.54,5.96-1.91,2.06-4.34,2.21-7.28.44-1.18-.59-1.99-1.47-2.43-2.65-.44-.88-.88-.96-1.32-.22-1.62,3.53-3.75,5.29-6.4,5.29-1.18,0-2.28-.37-3.31-1.1-1.32-1.03-2.28-2.35-2.87-3.97-1.03-3.24-1.4-7.06-1.1-11.47-1.18.15-1.76-.15-1.76-.88,0-.44.44-1.47,1.32-3.09.88-1.62,1.4-2.43,1.54-2.43,1.47,0,2.13,1.84,1.99,5.52-.15,3.97.04,6.99.55,9.04.51,2.06,1.8,3.09,3.86,3.09,1.32,0,2.61-.59,3.86-1.76,1.25-1.18,1.8-2.65,1.65-4.41-.44-4.26-.81-6.73-1.1-7.39-.29-.66-.37-1.36-.22-2.1.15-.44.37-1.25.66-2.43.29-.88.74-.96,1.32-.22.44.74.88,1.84,1.32,3.31.44,1.91.66,4.26.66,7.06.15,2.06.66,3.68,1.54,4.85,1.62,1.76,3.31,2.28,5.07,1.54.59-.29.88-.74.88-1.32,0-1.03-1.25-4.34-3.75-9.93-.29-.59-.44-1.32-.44-2.21,0-.29.07-.51.22-.66.59-2.5,1.1-3.75,1.54-3.75s.74.74.88,2.21c0,.74.81,2.87,2.43,6.4,1.47,3.09,2.21,5.52,2.21,7.28Z"/>
            <path class="cls-4" d="M918.96,286.21h0c0,5-1.84,7.5-5.52,7.5-1.47,0-2.72-.51-3.75-1.54-.59-.44-1.1-.29-1.54.44-1.76,2.65-4.27,3.97-7.5,3.97-1.32,0-2.43-.29-3.31-.88-2.94-1.76-6.54-1.69-10.81.22-1.91,1.03-5.15,3.6-9.71,7.72-2.65,2.21-5.22,4.41-7.72,6.62-4.27,3.24-9.27,6.03-15,8.38-4.71,1.91-7.87,2.87-9.49,2.87-.44,0-.66-.15-.66-.44.44-.44,1.25-.88,2.43-1.32,2.21-.74,5.22-2.06,9.04-3.97,7.06-3.97,13.24-8.68,18.53-14.12,4.41-4.85,9.12-8.53,14.12-11.03,3.53-1.91,6.54-2.06,9.04-.44,1.18.88,2.43,1.32,3.75,1.32,3.68,0,6.18-1.76,7.5-5.29.74-2.21,1.62-3.31,2.65-3.31.29,0,.37.37.22,1.1-.44,1.62-.51,2.57-.22,2.87,1.03,1.32,2.5,1.69,4.41,1.1,1.32-.29,1.47-.88.44-1.76-.74-.44-.88-1.1-.44-1.99.88-2.06,1.47-3.09,1.76-3.09,1.18,0,1.76,1.69,1.76,5.07Z"/>
            <path class="cls-4" d="M984.28,227.19h0c.24-.12.48-.23.72-.32.24-.09.45.02.63.32.3.42.38.9.23,1.44-.15.54-.29,1.05-.41,1.53-.18-.12-.35-.29-.5-.5-.15-.21-.38-.23-.68-.05-.78.36-1.44.92-1.98,1.67-.54.75-1.05,1.49-1.53,2.21-.36.66-.72,1.29-1.08,1.89s-.6,1.23-.72,1.89c-.06.48.26.77.95.86.69.09,1.28.11,1.76.05,1.56-.12,3.12-.36,4.68-.72s3.12-.69,4.68-.99c.6-.12,1.2-.18,1.8-.18s1.14.18,1.62.54c.6.42,1.1.92,1.49,1.49.39.57.66,1.17.81,1.8.15.63.14,1.23-.04,1.8-.18.57-.48,1.04-.9,1.4-.42.3-.83.5-1.22.59-.39.09-.83.2-1.31.32-2.28.66-4.64,1.23-7.07,1.71-2.43.48-4.85.87-7.25,1.17-.6.06-1.22.01-1.85-.14-.63-.15-1.19-.44-1.67-.86-.48-.6-.95-1.19-1.4-1.76-.45-.57-.86-1.19-1.22-1.85.84.3,1.62.63,2.34.99.72.36,1.5.6,2.34.72.84.24,1.68.3,2.52.18.84-.12,1.68-.24,2.52-.36,1.08-.24,2.39-.51,3.92-.81s2.99-.6,4.37-.9,2.55-.54,3.51-.72,1.41-.27,1.35-.27c.12-.06-.02-.41-.41-1.04-.39-.63-.83-1.01-1.31-1.13-1.14-.36-2.27-.39-3.38-.09-1.11.3-2.24.54-3.38.72-1.2.18-2.42.42-3.65.72s-2.48.33-3.74.09c-.36-.12-.72-.27-1.08-.45-.36-.18-.57-.48-.63-.9-.18-1.62.06-3.17.72-4.64.66-1.47,1.44-2.84,2.34-4.1.48-.66.96-1.26,1.44-1.8.48-.54,1.02-1.05,1.62-1.53Z"/>
            <path class="cls-4" d="M1828.82,324.34h0c-4.26,4.85-9.56,7.28-15.88,7.28s-9.27-1.99-9.27-5.96c0-3.68,1.47-7.13,4.41-10.37.44-.44,3.01-2.57,7.72-6.4-1.76-.44-3.46-.66-5.07-.66-3.09,0-5.22.51-6.4,1.54-.44.44-.81.51-1.1.22-.29-.15-.29-.51,0-1.1,1.03-2.5,2.28-4.19,3.75-5.07,1.03-.59,3.09-.88,6.18-.88,4.41,0,6.62.81,6.62,2.43,0,3.38-2.35,6.84-7.06,10.37-4.26,2.94-6.4,5.37-6.4,7.28,0,.88.81,1.73,2.43,2.54,1.62.81,3.16,1.21,4.63,1.21,5.59,0,10.37-1.18,14.34-3.53.74-.44,1.25-.59,1.54-.44.44.15.29.66-.44,1.54Z"/>
            <path class="cls-4" d="M1808.63,258.73h0c.44,0,.51,1.03.22,3.09-.29,1.91-.66,3.24-1.1,3.97-.88,1.32-1.99,2.06-3.31,2.21-1.18.15-2.06-.22-2.65-1.1-1.76-2.5-2.5-6.03-2.21-10.59.29-2.65,1.4-7.87,3.31-15.66.29-1.03.66-1.84,1.1-2.43,1.03-1.62,1.54-1.84,1.54-.66,0,.44-.22,1.32-.66,2.65-1.91,7.35-2.87,12.87-2.87,16.55,0,2.65.37,4.41,1.1,5.29.44.59.96.88,1.54.88,1.47,0,2.5-1.03,3.09-3.09.15-.74.44-1.1.88-1.1Z"/>
            <path class="cls-4" d="M1715.34,223.36h0c.44.44.44,1.54,0,3.31-.29,1.76-.74,2.65-1.32,2.65,0,0-.44-.59-1.32-1.76-.88-1.18-1.84-1.76-2.87-1.76-2.06,0-3.53,3.86-4.41,11.58-.88,7.72-1.69,11.51-2.43,11.36-.88,0-1.84-1.69-2.87-5.07-1.18-4.26-3.16-7.57-5.96-9.93-.15.29-.37.59-.66.88-.44.15-1.65-.33-3.64-1.43-1.99-1.1-3.05-2.1-3.2-2.98-.44-3.97.29-5.96,2.21-5.96,3.53-.15,7.28,3.6,11.25,11.25.59,1.62,1.4,3.46,2.43,5.52.44-3.68,1.03-7.35,1.76-11.03,1.18-6.77,3.01-10.07,5.51-9.93,1.91,0,3.75,1.1,5.52,3.31Z"/>
            <path class="cls-4" d="M1768.87,185.6h0c.29.44.11,1.36-.55,2.76s-1.14,2.17-1.43,2.32c-9.12,3.38-18.24,6.77-27.35,10.15-11.62,4.41-20,8.09-25.15,11.03-.29-.59-.29-1.69,0-3.31.29-1.47.66-2.35,1.1-2.65,16.32-7.35,34.12-14.12,53.39-20.3Z"/>
            <path class="cls-4" d="M1754.49,234.99h0c0-.29-1.07-1.21-3.2-2.76-2.13-1.54-3.27-2.32-3.42-2.32-.29,0-.7.74-1.21,2.21-.51,1.47-.77,2.5-.77,3.09,0,1.62.81,2.43,2.43,2.43.74,0,1.95-.33,3.64-.99s2.54-1.21,2.54-1.65ZM1757.13,232.78h0c0,6.91-3.09,10.37-9.27,10.37-3.09,0-4.63-1.91-4.63-5.74,0-4.27,1.4-8.46,4.19-12.57.74-2.35,1.32-3.53,1.76-3.53s.51.29.22.88c-.44,1.03-.66,1.91-.66,2.65,5.59,3.38,8.38,6.03,8.38,7.94Z"/>
            <path class="cls-4" d="M1659.81,316.58h0c.44.44.44,1.54,0,3.31-.29,1.76-.74,2.65-1.32,2.65,0,0-.44-.59-1.32-1.76-.88-1.18-1.84-1.76-2.87-1.76-2.06,0-3.53,3.86-4.41,11.58-.88,7.72-1.69,11.51-2.43,11.36-.88,0-1.84-1.69-2.87-5.07-1.18-4.26-3.16-7.57-5.96-9.93-.15.29-.37.59-.66.88-.44.15-1.65-.33-3.64-1.43-1.99-1.1-3.05-2.1-3.2-2.98-.44-3.97.29-5.96,2.21-5.96,3.53-.15,7.28,3.6,11.25,11.25.59,1.62,1.4,3.46,2.43,5.52.44-3.68,1.03-7.35,1.76-11.03,1.18-6.77,3.01-10.07,5.51-9.93,1.91,0,3.75,1.1,5.52,3.31Z"/>
            <path class="cls-4" d="M1696.24,198.3h0c0-1.91-.88-2.87-2.65-2.87-2.5,0-3.75,1.03-3.75,3.09,0,.74,1.91,1.99,5.74,3.75.44-1.47.66-2.79.66-3.97ZM1701.98,206.24h0c-.15.44-.44,1.4-.88,2.87-.15.88-.29,1.32-.44,1.32-.29-.15-.59-.37-.88-.66-1.18-.88-2.28-1.62-3.31-2.21-2.21,3.38-5.52,6.4-9.93,9.04-2.5,1.47-5.66,2.94-9.49,4.41-2.06.88-3.24,1.03-3.53.44-.29-.29.81-1.18,3.31-2.65,4.41-2.5,7.43-4.27,9.04-5.29,3.53-2.35,6.1-4.71,7.72-7.06-.59-.29-1.47-.59-2.65-.88-2.79-1.03-4.19-2.5-4.19-4.41,0-2.5,1.1-4.93,3.31-7.28,2.21-2.35,4.19-3.53,5.96-3.53,2.5,0,3.75,2.06,3.75,6.18,0,2.35-.51,4.63-1.54,6.84,2.5,1.32,3.75,2.28,3.75,2.87Z"/>
            <path class="cls-4" d="M1514.78,189.93h0c-1.61,4.95-3.34,7.61-5.2,7.99-57.94,15.23-107.4,32.75-148.38,52.56-.12-.74.46-2.23,1.76-4.46,1.3-2.23,2.51-3.71,3.62-4.46,11.39-6.69,32.93-15.48,64.63-26.37,28.6-9.66,56.46-18.08,83.57-25.26Z"/>
            <path class="cls-4" d="M1630.43,202.23h0c.29.44.11,1.36-.55,2.76s-1.14,2.17-1.43,2.32c-9.12,3.38-18.24,6.77-27.35,10.15-11.62,4.41-20,8.09-25.15,11.03-.29-.59-.29-1.69,0-3.31.29-1.47.66-2.35,1.1-2.65,16.32-7.35,34.12-14.12,53.39-20.3Z"/>
            <path class="cls-4" d="M1535.75,242.57h0c.44.44.44,1.54,0,3.31-.29,1.76-.74,2.65-1.32,2.65,0,0-.44-.59-1.32-1.76-.88-1.18-1.84-1.76-2.87-1.76-2.06,0-3.53,3.86-4.41,11.58-.88,7.72-1.69,11.51-2.43,11.36-.88,0-1.84-1.69-2.87-5.07-1.18-4.26-3.16-7.57-5.96-9.93-.15.29-.37.59-.66.88-.44.15-1.65-.33-3.64-1.43-1.99-1.1-3.05-2.1-3.2-2.98-.44-3.97.29-5.96,2.21-5.96,3.53-.15,7.28,3.6,11.25,11.25.59,1.62,1.4,3.46,2.43,5.52.44-3.68,1.03-7.35,1.76-11.03,1.18-6.77,3.01-10.07,5.51-9.93,1.91,0,3.75,1.1,5.52,3.31Z"/>
            <path class="cls-4" d="M1530.44,209.58h0c.29.44.11,1.36-.55,2.76-.66,1.4-1.14,2.17-1.43,2.32-9.12,3.38-18.24,6.77-27.35,10.15-11.62,4.41-20,8.09-25.15,11.03-.29-.59-.29-1.69,0-3.31.29-1.47.66-2.35,1.1-2.65,16.32-7.35,34.12-14.12,53.39-20.3Z"/>
            <path class="cls-4" d="M1549.75,337.17h0c.44,0,.51,1.03.22,3.09-.29,1.91-.66,3.24-1.1,3.97-.88,1.32-1.99,2.06-3.31,2.21-1.18.15-2.06-.22-2.65-1.1-1.76-2.5-2.5-6.03-2.21-10.59.29-2.65,1.4-7.87,3.31-15.66.29-1.03.66-1.84,1.1-2.43,1.03-1.62,1.54-1.84,1.54-.66,0,.44-.22,1.32-.66,2.65-1.91,7.35-2.87,12.87-2.87,16.55,0,2.65.37,4.41,1.1,5.29.44.59.96.88,1.54.88,1.47,0,2.5-1.03,3.09-3.09.15-.74.44-1.1.88-1.1Z"/>
            <path class="cls-4" d="M1620.56,335.43h0c0-.2-.48-.48-1.44-.84s-1.65-.53-2.05-.53c-1.52,0-3.34.81-5.47,2.43-2.03,1.42-3.04,2.43-3.04,3.04,2.03-.2,4.53-.79,7.52-1.75,2.99-.96,4.48-1.75,4.48-2.36ZM1623.14,333.76h0c0,2.33-1.22,4.31-3.65,5.93-1.82,1.11-4.71,2.08-8.66,2.89-3.65.81-6.84,1.22-9.57,1.22-.41,0-1.62-.46-3.65-1.37-2.03-.91-3.04-1.52-3.04-1.82,0-.2,1.22-.3,3.65-.3,1.52.1,3.75-.1,6.69-.61,3.14-2.13,5.01-3.8,5.62-5.01,1.72-3.14,2.58-5.42,2.58-6.84,0-2.13-.76-3.19-2.28-3.19-.91,0-1.77.66-2.58,1.98-.3.61-.46.46-.46-.46,0-.71.35-1.62,1.06-2.74,1.01-1.52,1.92-2.28,2.73-2.28,2.03,0,3.04,1.27,3.04,3.8,0,1.92-.25,3.7-.76,5.32-.41,1.01-.76,2.03-1.06,3.04,2.43-1.82,4.1-2.74,5.01-2.74,3.55,0,5.32,1.06,5.32,3.19Z"/>
            <path class="cls-4" d="M1705.92,333.3h0c.44,0,.51,1.03.22,3.09-.29,1.91-.66,3.24-1.1,3.97-.88,1.32-1.99,2.06-3.31,2.21-1.18.15-2.06-.22-2.65-1.1-1.76-2.5-2.5-6.03-2.21-10.59.29-2.65,1.4-7.87,3.31-15.66.29-1.03.66-1.84,1.1-2.43,1.03-1.62,1.54-1.84,1.54-.66,0,.44-.22,1.32-.66,2.65-1.91,7.35-2.87,12.87-2.87,16.55,0,2.65.37,4.41,1.1,5.29.44.59.96.88,1.54.88,1.47,0,2.5-1.03,3.09-3.09.15-.74.44-1.1.88-1.1Z"/>
            <path class="cls-4" d="M1746.26,319.27h0c2.5-3.45,4.92-4.7,7.25-3.75,1.29.52,2.07,1.38,2.33,2.59.52,2.59.35,5.18-.52,7.77-.69,1.73-1.98,4.01-3.88,6.86-2.16,3.71-5.09,7.64-8.8,11.78-1.38,1.55-2.29,2.2-2.72,1.94v-.52c.35-.6.91-1.42,1.68-2.46,1.73-1.98,4.53-5.91,8.41-11.78,1.9-3.45,2.72-6.3,2.46-8.54-.09-1.55-.73-2.55-1.94-2.98-.78-.35-1.51-.26-2.2.26-.43.17-1.08.65-1.94,1.42-.69.52-1.08.73-1.16.65-.78-.17-.43-1.25,1.04-3.24Z"/>
            <path class="cls-4" d="M1805.93,197.68h0c2.5-3.45,4.92-4.7,7.25-3.75,1.29.52,2.07,1.38,2.33,2.59.52,2.59.35,5.18-.52,7.77-.69,1.73-1.98,4.01-3.88,6.86-2.16,3.71-5.09,7.64-8.8,11.78-1.38,1.55-2.29,2.2-2.72,1.94v-.52c.35-.6.91-1.42,1.68-2.46,1.73-1.98,4.53-5.91,8.41-11.78,1.9-3.45,2.72-6.3,2.46-8.54-.09-1.55-.73-2.55-1.94-2.98-.78-.35-1.51-.26-2.2.26-.43.17-1.08.65-1.94,1.42-.69.52-1.08.73-1.16.65-.78-.17-.43-1.25,1.04-3.24Z"/>
            <path class="cls-4" d="M1367.69,180.69h0c.26.26.26,1.12,0,2.59-.17.6-.47.6-.91,0-.6-.86-1.34-1.29-2.2-1.29-1.29,0-1.94.78-1.94,2.33-.17,2.85-.35,6.21-.52,10.1.43,0,1.27.54,2.52,1.62,1.25,1.08,1.92,1.79,2.01,2.14.09.43-.02.99-.32,1.68-.3.69-.54,1.04-.71,1.04-1.81.17-3.69.65-5.63,1.42s-2.87,1.51-2.78,2.2c3.19,15.53,4.79,23.99,4.79,25.37,0,1.04-.13,1.55-.39,1.55-.17-.09-.3-.35-.39-.78-.6-3.45-1.6-8.41-2.98-14.89-1.38-5.7-2.07-9.28-2.07-10.74,0-1.81.65-3.41,1.94-4.79,1.12-1.21,2.46-1.94,4.01-2.2-.43-.35-1.08-.52-1.94-.52-.52,0-.95.35-1.29,1.04-.35.69-.6,1.04-.78,1.04-.09,0-.13-.22-.13-.65,0-.86.26-1.77.78-2.72.6-1.21,1.29-1.81,2.07-1.81-.09-.6-.6-1.73-1.55-3.37-1.12-1.98-2.07-3.19-2.85-3.62-.17.69-.35,1.04-.52,1.04-.35,0-1.21-.43-2.59-1.29s-2.07-1.47-2.07-1.81c0-2.33.39-3.49,1.16-3.49,1.29,0,2.76.73,4.4,2.2,1.81,1.73,3.32,3.97,4.53,6.73v-.13c0-1.38.04-3.67.13-6.86.35-3.28,1.29-4.92,2.85-4.92,1.04,0,2.16.6,3.37,1.81Z"/>
            <path class="cls-4" d="M1411.03,191.07h0c.44.44.44,1.54,0,3.31-.29,1.76-.74,2.65-1.32,2.65,0,0-.44-.59-1.32-1.76-.88-1.18-1.84-1.76-2.87-1.76-2.06,0-3.53,3.86-4.41,11.58-.88,7.72-1.69,11.51-2.43,11.36-.88,0-1.84-1.69-2.87-5.07-1.18-4.26-3.16-7.57-5.96-9.93-.15.29-.37.59-.66.88-.44.15-1.65-.33-3.64-1.43-1.99-1.1-3.05-2.1-3.2-2.98-.44-3.97.29-5.96,2.21-5.96,3.53-.15,7.28,3.6,11.25,11.25.59,1.62,1.4,3.46,2.43,5.52.44-3.68,1.03-7.35,1.76-11.03,1.18-6.77,3.01-10.07,5.51-9.93,1.91,0,3.75,1.1,5.52,3.31Z"/>
            <path class="cls-4" d="M1431.84,203.85h0c.44,0,.51,1.03.22,3.09-.29,1.91-.66,3.24-1.1,3.97-.88,1.32-1.99,2.06-3.31,2.21-1.18.15-2.06-.22-2.65-1.1-1.76-2.5-2.5-6.03-2.21-10.59.29-2.65,1.4-7.87,3.31-15.66.29-1.03.66-1.84,1.1-2.43,1.03-1.62,1.54-1.84,1.54-.66,0,.44-.22,1.32-.66,2.65-1.91,7.35-2.87,12.87-2.87,16.55,0,2.65.37,4.41,1.1,5.29.44.59.96.88,1.54.88,1.47,0,2.5-1.03,3.09-3.09.15-.74.44-1.1.88-1.1Z"/>
            <path class="cls-4" d="M1427.02,280.35h0c.44,0,.51,1.03.22,3.09-.29,1.91-.66,3.24-1.1,3.97-.88,1.32-1.99,2.06-3.31,2.21-1.18.15-2.06-.22-2.65-1.1-1.76-2.5-2.5-6.03-2.21-10.59.29-2.65,1.4-7.87,3.31-15.66.29-1.03.66-1.84,1.1-2.43,1.03-1.62,1.54-1.84,1.54-.66,0,.44-.22,1.32-.66,2.65-1.91,7.35-2.87,12.87-2.87,16.55,0,2.65.37,4.41,1.1,5.29.44.59.96.88,1.54.88,1.47,0,2.5-1.03,3.09-3.09.15-.74.44-1.1.88-1.1Z"/>
            <path class="cls-4" d="M1182.18,213.81h0c.29.44.11,1.36-.55,2.76-.66,1.4-1.14,2.17-1.43,2.32-9.12,3.38-18.24,6.77-27.35,10.15-11.62,4.41-20,8.09-25.15,11.03-.29-.59-.29-1.69,0-3.31.29-1.47.66-2.35,1.1-2.65,16.32-7.35,34.12-14.12,53.39-20.3Z"/>
            <path class="cls-4" d="M1111.13,203.48h0c.29.44.11,1.36-.55,2.76-.66,1.4-1.14,2.17-1.43,2.32-9.12,3.38-18.24,6.77-27.35,10.15-11.62,4.41-20,8.09-25.15,11.03-.29-.59-.29-1.69,0-3.31.29-1.47.66-2.35,1.1-2.65,16.32-7.35,34.12-14.12,53.39-20.3Z"/>
            <path class="cls-4" d="M1605.16,185.54h0c.44.44.44,1.54,0,3.31-.29,1.76-.74,2.65-1.32,2.65,0,0-.44-.59-1.32-1.76-.88-1.18-1.84-1.76-2.87-1.76-2.06,0-3.53,3.86-4.41,11.58-.88,7.72-1.69,11.51-2.43,11.36-.88,0-1.84-1.69-2.87-5.07-1.18-4.26-3.16-7.57-5.96-9.93-.15.29-.37.59-.66.88-.44.15-1.65-.33-3.64-1.43-1.99-1.1-3.05-2.1-3.2-2.98-.44-3.97.29-5.96,2.21-5.96,3.53-.15,7.28,3.6,11.25,11.25.59,1.62,1.4,3.46,2.43,5.52.44-3.68,1.03-7.35,1.76-11.03,1.18-6.77,3.01-10.07,5.51-9.93,1.91,0,3.75,1.1,5.52,3.31Z"/>
            <path class="cls-4" d="M1490.59,327.11h0c.44.44.44,1.54,0,3.31-.29,1.76-.74,2.65-1.32,2.65,0,0-.44-.59-1.32-1.76-.88-1.18-1.84-1.76-2.87-1.76-2.06,0-3.53,3.86-4.41,11.58-.88,7.72-1.69,11.51-2.43,11.36-.88,0-1.84-1.69-2.87-5.07-1.18-4.26-3.16-7.57-5.96-9.93-.15.29-.37.59-.66.88-.44.15-1.65-.33-3.64-1.43-1.99-1.1-3.05-2.1-3.2-2.98-.44-3.97.29-5.96,2.21-5.96,3.53-.15,7.28,3.6,11.25,11.25.59,1.62,1.4,3.46,2.43,5.52.44-3.68,1.03-7.35,1.76-11.03,1.18-6.77,3.01-10.07,5.51-9.93,1.91,0,3.75,1.1,5.52,3.31Z"/>
            <path class="cls-4" d="M1371.59,341.72h0c.44,0,.51,1.03.22,3.09-.29,1.91-.66,3.24-1.1,3.97-.88,1.32-1.99,2.06-3.31,2.21-1.18.15-2.06-.22-2.65-1.1-1.76-2.5-2.5-6.03-2.21-10.59.29-2.65,1.4-7.87,3.31-15.66.29-1.03.66-1.84,1.1-2.43,1.03-1.62,1.54-1.84,1.54-.66,0,.44-.22,1.32-.66,2.65-1.91,7.35-2.87,12.87-2.87,16.55,0,2.65.37,4.41,1.1,5.29.44.59.96.88,1.54.88,1.47,0,2.5-1.03,3.09-3.09.15-.74.44-1.1.88-1.1Z"/>
            <path class="cls-4" d="M1449.86,320.22h0c.24.36.09,1.11-.45,2.25-.54,1.14-.93,1.77-1.17,1.89-7.44,2.76-14.89,5.52-22.33,8.28-9.48,3.6-16.33,6.6-20.53,9-.24-.48-.24-1.38,0-2.7.24-1.2.54-1.92.9-2.16,13.33-6,27.85-11.53,43.58-16.57Z"/>
            <path class="cls-4" d="M1341.82,308.03h0c-4.26,4.85-9.56,7.28-15.88,7.28s-9.27-1.99-9.27-5.96c0-3.68,1.47-7.13,4.41-10.37.44-.44,3.01-2.57,7.72-6.4-1.76-.44-3.46-.66-5.07-.66-3.09,0-5.22.51-6.4,1.54-.44.44-.81.51-1.1.22-.29-.15-.29-.51,0-1.1,1.03-2.5,2.28-4.19,3.75-5.07,1.03-.59,3.09-.88,6.18-.88,4.41,0,6.62.81,6.62,2.43,0,3.38-2.35,6.84-7.06,10.37-4.26,2.94-6.4,5.37-6.4,7.28,0,.88.81,1.73,2.43,2.54,1.62.81,3.16,1.21,4.63,1.21,5.59,0,10.37-1.18,14.34-3.53.74-.44,1.25-.59,1.54-.44.44.15.29.66-.44,1.54Z"/>
            <path class="cls-4" d="M1369.05,289h0c0,3.65-1.11,5.47-3.34,5.47-.81,0-1.57-.61-2.28-1.82-.91-1.32-1.37-2.89-1.37-4.71,0-3.34.71-6.84,2.13-10.48.51-1.52.76-3.34.76-5.47,0-4.86-1.42-8.86-4.25-12-.41-.41-.61-.76-.61-1.06s.18-1.04.53-2.2c.35-1.16.63-1.75.84-1.75.3,0,.81.61,1.52,1.82,2.53,4.46,3.8,9.17,3.8,14.13,0,2.84-.25,5.01-.76,6.53-1.52,3.75-2.28,6.99-2.28,9.72,0,2.43.71,3.65,2.13,3.65s2.13-.96,2.13-2.89c0-.81.2-1.22.61-1.22.3,0,.46.76.46,2.28Z"/>
            <path class="cls-4" d="M1635.54,245.48h0c.44.44.44,1.54,0,3.31-.29,1.76-.74,2.65-1.32,2.65,0,0-.44-.59-1.32-1.76-.88-1.18-1.84-1.76-2.87-1.76-2.06,0-3.53,3.86-4.41,11.58-.88,7.72-1.69,11.51-2.43,11.36-.88,0-1.84-1.69-2.87-5.07-1.18-4.26-3.16-7.57-5.96-9.93-.15.29-.37.59-.66.88-.44.15-1.65-.33-3.64-1.43-1.99-1.1-3.05-2.1-3.2-2.98-.44-3.97.29-5.96,2.21-5.96,3.53-.15,7.28,3.6,11.25,11.25.59,1.62,1.4,3.46,2.43,5.52.44-3.68,1.03-7.35,1.76-11.03,1.18-6.77,3.01-10.07,5.51-9.93,1.91,0,3.75,1.1,5.52,3.31Z"/>
            <path class="cls-4" d="M1554.84,208.99h0c.44,0,.51,1.03.22,3.09-.29,1.91-.66,3.24-1.1,3.97-.88,1.32-1.99,2.06-3.31,2.21-1.18.15-2.06-.22-2.65-1.1-1.76-2.5-2.5-6.03-2.21-10.59.29-2.65,1.4-7.87,3.31-15.66.29-1.03.66-1.84,1.1-2.43,1.03-1.62,1.54-1.84,1.54-.66,0,.44-.22,1.32-.66,2.65-1.91,7.35-2.87,12.87-2.87,16.55,0,2.65.37,4.41,1.1,5.29.44.59.96.88,1.54.88,1.47,0,2.5-1.03,3.09-3.09.15-.74.44-1.1.88-1.1Z"/>
            <path class="cls-4" d="M1566.44,266.02h0c.44,0,.51,1.03.22,3.09-.29,1.91-.66,3.24-1.1,3.97-.88,1.32-1.99,2.06-3.31,2.21-1.18.15-2.06-.22-2.65-1.1-1.76-2.5-2.5-6.03-2.21-10.59.29-2.65,1.4-7.87,3.31-15.66.29-1.03.66-1.84,1.1-2.43,1.03-1.62,1.54-1.84,1.54-.66,0,.44-.22,1.32-.66,2.65-1.91,7.35-2.87,12.87-2.87,16.55,0,2.65.37,4.41,1.1,5.29.44.59.96.88,1.54.88,1.47,0,2.5-1.03,3.09-3.09.15-.74.44-1.1.88-1.1Z"/>
            <path class="cls-4" d="M1242.71,333.64h0c-4.26,4.85-9.56,7.28-15.88,7.28s-9.27-1.99-9.27-5.96c0-3.68,1.47-7.13,4.41-10.37.44-.44,3.01-2.57,7.72-6.4-1.76-.44-3.46-.66-5.07-.66-3.09,0-5.22.51-6.4,1.54-.44.44-.81.51-1.1.22-.29-.15-.29-.51,0-1.1,1.03-2.5,2.28-4.19,3.75-5.07,1.03-.59,3.09-.88,6.18-.88,4.41,0,6.62.81,6.62,2.43,0,3.38-2.35,6.84-7.06,10.37-4.26,2.94-6.4,5.37-6.4,7.28,0,.88.81,1.73,2.43,2.54s3.16,1.21,4.63,1.21c5.59,0,10.37-1.18,14.34-3.53.74-.44,1.25-.59,1.54-.44.44.15.29.66-.44,1.54Z"/>
            <path class="cls-4" d="M1272.61,187.84h0c.44.44.44,1.54,0,3.31-.29,1.76-.74,2.65-1.32,2.65,0,0-.44-.59-1.32-1.76-.88-1.18-1.84-1.76-2.87-1.76-2.06,0-3.53,3.86-4.41,11.58-.88,7.72-1.69,11.51-2.43,11.36-.88,0-1.84-1.69-2.87-5.07-1.18-4.26-3.16-7.57-5.96-9.93-.15.29-.37.59-.66.88-.44.15-1.65-.33-3.64-1.43-1.99-1.1-3.05-2.1-3.2-2.98-.44-3.97.29-5.96,2.21-5.96,3.53-.15,7.28,3.6,11.25,11.25.59,1.62,1.4,3.46,2.43,5.52.44-3.68,1.03-7.35,1.76-11.03,1.18-6.77,3.01-10.07,5.51-9.93,1.91,0,3.75,1.1,5.52,3.31Z"/>
            <path class="cls-4" d="M1220.63,234.39h0c.44,0,.51,1.03.22,3.09-.29,1.91-.66,3.24-1.1,3.97-.88,1.32-1.99,2.06-3.31,2.21-1.18.15-2.06-.22-2.65-1.1-1.76-2.5-2.5-6.03-2.21-10.59.29-2.65,1.4-7.87,3.31-15.66.29-1.03.66-1.84,1.1-2.43,1.03-1.62,1.54-1.84,1.54-.66,0,.44-.22,1.32-.66,2.65-1.91,7.35-2.87,12.87-2.87,16.55,0,2.65.37,4.41,1.1,5.29.44.59.96.88,1.54.88,1.47,0,2.5-1.03,3.09-3.09.15-.74.44-1.1.88-1.1Z"/>
            <path class="cls-4" d="M1160.99,209.03h0c.44,0,.51,1.03.22,3.09-.29,1.91-.66,3.24-1.1,3.97-.88,1.32-1.99,2.06-3.31,2.21-1.18.15-2.06-.22-2.65-1.1-1.76-2.5-2.5-6.03-2.21-10.59.29-2.65,1.4-7.87,3.31-15.66.29-1.03.66-1.84,1.1-2.43,1.03-1.62,1.54-1.84,1.54-.66,0,.44-.22,1.32-.66,2.65-1.91,7.35-2.87,12.87-2.87,16.55,0,2.65.37,4.41,1.1,5.29.44.59.96.88,1.54.88,1.47,0,2.5-1.03,3.09-3.09.15-.74.44-1.1.88-1.1Z"/>
            <path class="cls-4" d="M1034.39,256.87h0c.44.44.44,1.54,0,3.31-.29,1.76-.74,2.65-1.32,2.65,0,0-.44-.59-1.32-1.76-.88-1.18-1.84-1.76-2.87-1.76-2.06,0-3.53,3.86-4.41,11.58-.88,7.72-1.69,11.51-2.43,11.36-.88,0-1.84-1.69-2.87-5.07-1.18-4.26-3.16-7.57-5.96-9.93-.15.29-.37.59-.66.88-.44.15-1.65-.33-3.64-1.43s-3.05-2.1-3.2-2.98c-.44-3.97.29-5.96,2.21-5.96,3.53-.15,7.28,3.6,11.25,11.25.59,1.62,1.4,3.46,2.43,5.52.44-3.68,1.03-7.35,1.76-11.03,1.18-6.77,3.01-10.07,5.52-9.93,1.91,0,3.75,1.1,5.52,3.31Z"/>
            <path class="cls-4" d="M1284.9,301.32h0c.44.44.44,1.54,0,3.31-.29,1.76-.74,2.65-1.32,2.65,0,0-.44-.59-1.32-1.76-.88-1.18-1.84-1.76-2.87-1.76-2.06,0-3.53,3.86-4.41,11.58-.88,7.72-1.69,11.51-2.43,11.36-.88,0-1.84-1.69-2.87-5.07-1.18-4.26-3.16-7.57-5.96-9.93-.15.29-.37.59-.66.88-.44.15-1.65-.33-3.64-1.43-1.99-1.1-3.05-2.1-3.2-2.98-.44-3.97.29-5.96,2.21-5.96,3.53-.15,7.28,3.6,11.25,11.25.59,1.62,1.4,3.46,2.43,5.52.44-3.68,1.03-7.35,1.76-11.03,1.18-6.77,3.01-10.07,5.51-9.93,1.91,0,3.75,1.1,5.52,3.31Z"/>
            <path class="cls-4" d="M817.2,340.2h0c-4.26,4.85-9.56,7.28-15.88,7.28s-9.27-1.99-9.27-5.96c0-3.68,1.47-7.13,4.41-10.37.44-.44,3.01-2.57,7.72-6.4-1.76-.44-3.46-.66-5.07-.66-3.09,0-5.22.51-6.4,1.54-.44.44-.81.51-1.1.22-.29-.15-.29-.51,0-1.1,1.03-2.5,2.28-4.19,3.75-5.07,1.03-.59,3.09-.88,6.18-.88,4.41,0,6.62.81,6.62,2.43,0,3.38-2.35,6.84-7.06,10.37-4.26,2.94-6.4,5.37-6.4,7.28,0,.88.81,1.73,2.43,2.54,1.62.81,3.16,1.21,4.63,1.21,5.59,0,10.37-1.18,14.34-3.53.74-.44,1.25-.59,1.54-.44.44.15.29.66-.44,1.54Z"/>
            <path class="cls-4" d="M708.36,214.11h0c.21.32.08.97-.39,1.97-.47,1-.81,1.55-1.02,1.65-6.51,2.42-13.03,4.83-19.54,7.25-8.3,3.15-14.29,5.78-17.96,7.88-.21-.42-.21-1.21,0-2.36.21-1.05.47-1.68.79-1.89,11.66-5.25,24.37-10.08,38.13-14.5Z"/>
            <path class="cls-4" d="M674.69,215.39h0c0,2.7-.83,4.05-2.48,4.05-.6,0-1.16-.45-1.69-1.35-.68-.98-1.01-2.14-1.01-3.49,0-2.48.53-5.06,1.58-7.77.38-1.13.56-2.48.56-4.05,0-3.6-1.05-6.57-3.15-8.89-.3-.3-.45-.56-.45-.79s.13-.77.39-1.63.47-1.29.62-1.29c.23,0,.6.45,1.13,1.35,1.88,3.3,2.81,6.79,2.81,10.47,0,2.1-.19,3.71-.56,4.84-1.13,2.78-1.69,5.18-1.69,7.2,0,1.8.53,2.7,1.58,2.7s1.58-.71,1.58-2.14c0-.6.15-.9.45-.9.23,0,.34.56.34,1.69Z"/>
            <path class="cls-4" d="M758.53,191.65h0c.44.44.44,1.54,0,3.31-.29,1.76-.74,2.65-1.32,2.65,0,0-.44-.59-1.32-1.76-.88-1.18-1.84-1.76-2.87-1.76-2.06,0-3.53,3.86-4.41,11.58-.88,7.72-1.69,11.51-2.43,11.36-.88,0-1.84-1.69-2.87-5.07-1.18-4.26-3.16-7.57-5.96-9.93-.15.29-.37.59-.66.88-.44.15-1.65-.33-3.64-1.43s-3.05-2.1-3.2-2.98c-.44-3.97.29-5.96,2.21-5.96,3.53-.15,7.28,3.6,11.25,11.25.59,1.62,1.4,3.46,2.43,5.52.44-3.68,1.03-7.35,1.76-11.03,1.18-6.77,3.01-10.07,5.52-9.93,1.91,0,3.75,1.1,5.52,3.31Z"/>
            <path class="cls-4" d="M744.26,269.93h0c.44,0,.51,1.03.22,3.09-.29,1.91-.66,3.24-1.1,3.97-.88,1.32-1.99,2.06-3.31,2.21-1.18.15-2.06-.22-2.65-1.1-1.76-2.5-2.5-6.03-2.21-10.59.29-2.65,1.4-7.87,3.31-15.66.29-1.03.66-1.84,1.1-2.43,1.03-1.62,1.54-1.84,1.54-.66,0,.44-.22,1.32-.66,2.65-1.91,7.35-2.87,12.87-2.87,16.55,0,2.65.37,4.41,1.1,5.29.44.59.96.88,1.54.88,1.47,0,2.5-1.03,3.09-3.09.15-.74.44-1.1.88-1.1Z"/>
            <path class="cls-4" d="M1075.65,282h0c.44,0,.51,1.03.22,3.09-.29,1.91-.66,3.24-1.1,3.97-.88,1.32-1.99,2.06-3.31,2.21-1.18.15-2.06-.22-2.65-1.1-1.76-2.5-2.5-6.03-2.21-10.59.29-2.65,1.4-7.87,3.31-15.66.29-1.03.66-1.84,1.1-2.43,1.03-1.62,1.54-1.84,1.54-.66,0,.44-.22,1.32-.66,2.65-1.91,7.35-2.87,12.87-2.87,16.55,0,2.65.37,4.41,1.1,5.29.44.59.96.88,1.54.88,1.47,0,2.5-1.03,3.09-3.09.15-.74.44-1.1.88-1.1Z"/>
            <path class="cls-4" d="M978.23,287.89h0c.44,0,.51,1.03.22,3.09-.29,1.91-.66,3.24-1.1,3.97-.88,1.32-1.99,2.06-3.31,2.21-1.18.15-2.06-.22-2.65-1.1-1.76-2.5-2.5-6.03-2.21-10.59.29-2.65,1.4-7.87,3.31-15.66.29-1.03.66-1.84,1.1-2.43,1.03-1.62,1.54-1.84,1.54-.66,0,.44-.22,1.32-.66,2.65-1.91,7.35-2.87,12.87-2.87,16.55,0,2.65.37,4.41,1.1,5.29.44.59.96.88,1.54.88,1.47,0,2.5-1.03,3.09-3.09.15-.74.44-1.1.88-1.1Z"/>
            <path class="cls-4" d="M962.64,316.53h0c.44.44.44,1.54,0,3.31-.29,1.76-.74,2.65-1.32,2.65,0,0-.44-.59-1.32-1.76-.88-1.18-1.84-1.76-2.87-1.76-2.06,0-3.53,3.86-4.41,11.58s-1.69,11.51-2.43,11.36c-.88,0-1.84-1.69-2.87-5.07-1.18-4.26-3.16-7.57-5.96-9.93-.15.29-.37.59-.66.88-.44.15-1.65-.33-3.64-1.43s-3.05-2.1-3.2-2.98c-.44-3.97.29-5.96,2.21-5.96,3.53-.15,7.28,3.6,11.25,11.25.59,1.62,1.4,3.46,2.43,5.52.44-3.68,1.03-7.35,1.76-11.03,1.18-6.77,3.01-10.07,5.52-9.93,1.91,0,3.75,1.1,5.52,3.31Z"/>
            <path class="cls-4" d="M1065.47,313.45h0c.44.44.44,1.54,0,3.31-.29,1.76-.74,2.65-1.32,2.65,0,0-.44-.59-1.32-1.76-.88-1.18-1.84-1.76-2.87-1.76-2.06,0-3.53,3.86-4.41,11.58s-1.69,11.51-2.43,11.36c-.88,0-1.84-1.69-2.87-5.07-1.18-4.26-3.16-7.57-5.96-9.93-.15.29-.37.59-.66.88-.44.15-1.65-.33-3.64-1.43s-3.05-2.1-3.2-2.98c-.44-3.97.29-5.96,2.21-5.96,3.53-.15,7.28,3.6,11.25,11.25.59,1.62,1.4,3.46,2.43,5.52.44-3.68,1.03-7.35,1.76-11.03,1.18-6.77,3.01-10.07,5.52-9.93,1.91,0,3.75,1.1,5.52,3.31Z"/>
            <path class="cls-4" d="M1131.18,337.53h0c.44,0,.51,1.03.22,3.09-.29,1.91-.66,3.24-1.1,3.97-.88,1.32-1.99,2.06-3.31,2.21-1.18.15-2.06-.22-2.65-1.1-1.76-2.5-2.5-6.03-2.21-10.59.29-2.65,1.4-7.87,3.31-15.66.29-1.03.66-1.84,1.1-2.43,1.03-1.62,1.54-1.84,1.54-.66,0,.44-.22,1.32-.66,2.65-1.91,7.35-2.87,12.87-2.87,16.55,0,2.65.37,4.41,1.1,5.29.44.59.96.88,1.54.88,1.47,0,2.5-1.03,3.09-3.09.15-.74.44-1.1.88-1.1Z"/>
            <path class="cls-4" d="M1063.28,197.18h0c.44,0,.51,1.03.22,3.09-.29,1.91-.66,3.24-1.1,3.97-.88,1.32-1.99,2.06-3.31,2.21-1.18.15-2.06-.22-2.65-1.1-1.76-2.5-2.5-6.03-2.21-10.59.29-2.65,1.4-7.87,3.31-15.66.29-1.03.66-1.84,1.1-2.43,1.03-1.62,1.54-1.84,1.54-.66,0,.44-.22,1.32-.66,2.65-1.91,7.35-2.87,12.87-2.87,16.55,0,2.65.37,4.41,1.1,5.29.44.59.96.88,1.54.88,1.47,0,2.5-1.03,3.09-3.09.15-.74.44-1.1.88-1.1Z"/>
            <path class="cls-4" d="M1103.56,178.46h0c.44.44.44,1.54,0,3.31-.29,1.76-.74,2.65-1.32,2.65,0,0-.44-.59-1.32-1.76-.88-1.18-1.84-1.76-2.87-1.76-2.06,0-3.53,3.86-4.41,11.58-.88,7.72-1.69,11.51-2.43,11.36-.88,0-1.84-1.69-2.87-5.07-1.18-4.26-3.16-7.57-5.96-9.93-.15.29-.37.59-.66.88-.44.15-1.65-.33-3.64-1.43-1.99-1.1-3.05-2.1-3.2-2.98-.44-3.97.29-5.96,2.21-5.96,3.53-.15,7.28,3.6,11.25,11.25.59,1.62,1.4,3.46,2.43,5.52.44-3.68,1.03-7.35,1.76-11.03,1.18-6.77,3.01-10.07,5.52-9.93,1.91,0,3.75,1.1,5.52,3.31Z"/>
            <path class="cls-4" d="M1192.63,178.98h0c.44.44.44,1.54,0,3.31-.29,1.76-.74,2.65-1.32,2.65,0,0-.44-.59-1.32-1.76-.88-1.18-1.84-1.76-2.87-1.76-2.06,0-3.53,3.86-4.41,11.58-.88,7.72-1.69,11.51-2.43,11.36-.88,0-1.84-1.69-2.87-5.07-1.18-4.26-3.16-7.57-5.96-9.93-.15.29-.37.59-.66.88-.44.15-1.65-.33-3.64-1.43-1.99-1.1-3.05-2.1-3.2-2.98-.44-3.97.29-5.96,2.21-5.96,3.53-.15,7.28,3.6,11.25,11.25.59,1.62,1.4,3.46,2.43,5.52.44-3.68,1.03-7.35,1.76-11.03,1.18-6.77,3.01-10.07,5.51-9.93,1.91,0,3.75,1.1,5.52,3.31Z"/>
            <path class="cls-4" d="M1181.38,321.24h0c.44.44.44,1.54,0,3.31-.29,1.76-.74,2.65-1.32,2.65,0,0-.44-.59-1.32-1.76-.88-1.18-1.84-1.76-2.87-1.76-2.06,0-3.53,3.86-4.41,11.58-.88,7.72-1.69,11.51-2.43,11.36-.88,0-1.84-1.69-2.87-5.07-1.18-4.26-3.16-7.57-5.96-9.93-.15.29-.37.59-.66.88-.44.15-1.65-.33-3.64-1.43-1.99-1.1-3.05-2.1-3.2-2.98-.44-3.97.29-5.96,2.21-5.96,3.53-.15,7.28,3.6,11.25,11.25.59,1.62,1.4,3.46,2.43,5.52.44-3.68,1.03-7.35,1.76-11.03,1.18-6.77,3.01-10.07,5.51-9.93,1.91,0,3.75,1.1,5.52,3.31Z"/>
            <path class="cls-4" d="M590.9,214.38h0c0,2.65-.51,4.63-1.54,5.96-1.91,2.06-4.34,2.21-7.28.44-1.18-.59-1.99-1.47-2.43-2.65-.44-.88-.88-.96-1.32-.22-1.62,3.53-3.75,5.29-6.4,5.29-1.18,0-2.28-.37-3.31-1.1-1.32-1.03-2.28-2.35-2.87-3.97-1.03-3.24-1.4-7.06-1.1-11.47-1.18.15-1.76-.15-1.76-.88,0-.44.44-1.47,1.32-3.09.88-1.62,1.4-2.43,1.54-2.43,1.47,0,2.13,1.84,1.99,5.52-.15,3.97.04,6.99.55,9.04.51,2.06,1.8,3.09,3.86,3.09,1.32,0,2.61-.59,3.86-1.76,1.25-1.18,1.8-2.65,1.65-4.41-.44-4.26-.81-6.73-1.1-7.39-.29-.66-.37-1.36-.22-2.1.15-.44.37-1.25.66-2.43.29-.88.74-.96,1.32-.22.44.74.88,1.84,1.32,3.31.44,1.91.66,4.26.66,7.06.15,2.06.66,3.68,1.54,4.85,1.62,1.76,3.31,2.28,5.07,1.54.59-.29.88-.74.88-1.32,0-1.03-1.25-4.34-3.75-9.93-.29-.59-.44-1.32-.44-2.21,0-.29.07-.51.22-.66.59-2.5,1.1-3.75,1.54-3.75s.74.74.88,2.21c0,.74.81,2.87,2.43,6.4,1.47,3.09,2.21,5.52,2.21,7.28Z"/>
            <path class="cls-4" d="M570.17,187.8h0c0-1.91-.88-2.87-2.65-2.87-2.5,0-3.75,1.03-3.75,3.09,0,.74,1.91,1.99,5.74,3.75.44-1.47.66-2.79.66-3.97ZM575.9,195.75h0c-.15.44-.44,1.4-.88,2.87-.15.88-.29,1.32-.44,1.32-.29-.15-.59-.37-.88-.66-1.18-.88-2.28-1.62-3.31-2.21-2.21,3.38-5.52,6.4-9.93,9.04-2.5,1.47-5.66,2.94-9.49,4.41-2.06.88-3.24,1.03-3.53.44-.29-.29.81-1.18,3.31-2.65,4.41-2.5,7.43-4.27,9.04-5.29,3.53-2.35,6.1-4.71,7.72-7.06-.59-.29-1.47-.59-2.65-.88-2.79-1.03-4.19-2.5-4.19-4.41,0-2.5,1.1-4.93,3.31-7.28,2.21-2.35,4.19-3.53,5.96-3.53,2.5,0,3.75,2.06,3.75,6.18,0,2.35-.51,4.63-1.54,6.84,2.5,1.32,3.75,2.28,3.75,2.87Z"/>
            <path class="cls-4" d="M652.36,220.84h0c.29.44.11,1.36-.55,2.76s-1.14,2.17-1.43,2.32c-9.12,3.38-18.24,6.77-27.35,10.15-11.62,4.41-20,8.09-25.15,11.03-.29-.59-.29-1.69,0-3.31.29-1.47.66-2.35,1.1-2.65,16.32-7.35,34.12-14.12,53.39-20.3Z"/>
            <path class="cls-4" d="M650.38,193.19h0c.44.44.44,1.54,0,3.31-.29,1.76-.74,2.65-1.32,2.65,0,0-.44-.59-1.32-1.76-.88-1.18-1.84-1.76-2.87-1.76-2.06,0-3.53,3.86-4.41,11.58-.88,7.72-1.69,11.51-2.43,11.36-.88,0-1.84-1.69-2.87-5.07-1.18-4.26-3.16-7.57-5.96-9.93-.15.29-.37.59-.66.88-.44.15-1.65-.33-3.64-1.43-1.99-1.1-3.05-2.1-3.2-2.98-.44-3.97.29-5.96,2.21-5.96,3.53-.15,7.28,3.6,11.25,11.25.59,1.62,1.4,3.46,2.43,5.52.44-3.68,1.03-7.35,1.76-11.03,1.18-6.77,3.01-10.07,5.52-9.93,1.91,0,3.75,1.1,5.52,3.31Z"/>
            <path class="cls-4" d="M617.06,217.13h0c.44,0,.51,1.03.22,3.09-.29,1.91-.66,3.24-1.1,3.97-.88,1.32-1.99,2.06-3.31,2.21-1.18.15-2.06-.22-2.65-1.1-1.76-2.5-2.5-6.03-2.21-10.59.29-2.65,1.4-7.87,3.31-15.66.29-1.03.66-1.84,1.1-2.43,1.03-1.62,1.54-1.84,1.54-.66,0,.44-.22,1.32-.66,2.65-1.91,7.35-2.87,12.87-2.87,16.55,0,2.65.37,4.41,1.1,5.29.44.59.96.88,1.54.88,1.47,0,2.5-1.03,3.09-3.09.15-.74.44-1.1.88-1.1Z"/>
            <path class="cls-4" d="M670.88,323.78h0c.44.44.44,1.54,0,3.31-.29,1.76-.74,2.65-1.32,2.65,0,0-.44-.59-1.32-1.76-.88-1.18-1.84-1.76-2.87-1.76-2.06,0-3.53,3.86-4.41,11.58-.88,7.72-1.69,11.51-2.43,11.36-.88,0-1.84-1.69-2.87-5.07-1.18-4.26-3.16-7.57-5.96-9.93-.15.29-.37.59-.66.88-.44.15-1.65-.33-3.64-1.43s-3.05-2.1-3.2-2.98c-.44-3.97.29-5.96,2.21-5.96,3.53-.15,7.28,3.6,11.25,11.25.59,1.62,1.4,3.46,2.43,5.52.44-3.68,1.03-7.35,1.76-11.03,1.18-6.77,3.01-10.07,5.52-9.93,1.91,0,3.75,1.1,5.52,3.31Z"/>
            <path class="cls-4" d="M734.32,321.12h0c.44.44.44,1.54,0,3.31-.29,1.76-.74,2.65-1.32,2.65,0,0-.44-.59-1.32-1.76-.88-1.18-1.84-1.76-2.87-1.76-2.06,0-3.53,3.86-4.41,11.58s-1.69,11.51-2.43,11.36c-.88,0-1.84-1.69-2.87-5.07-1.18-4.26-3.16-7.57-5.96-9.93-.15.29-.37.59-.66.88-.44.15-1.65-.33-3.64-1.43s-3.05-2.1-3.2-2.98c-.44-3.97.29-5.96,2.21-5.96,3.53-.15,7.28,3.6,11.25,11.25.59,1.62,1.4,3.46,2.43,5.52.44-3.68,1.03-7.35,1.76-11.03,1.18-6.77,3.01-10.07,5.52-9.93,1.91,0,3.75,1.1,5.52,3.31Z"/>
            <path class="cls-4" d="M692.04,340.89h0c.44,0,.51,1.03.22,3.09-.29,1.91-.66,3.24-1.1,3.97-.88,1.32-1.99,2.06-3.31,2.21-1.18.15-2.06-.22-2.65-1.1-1.76-2.5-2.5-6.03-2.21-10.59.29-2.65,1.4-7.87,3.31-15.66.29-1.03.66-1.84,1.1-2.43,1.03-1.62,1.54-1.84,1.54-.66,0,.44-.22,1.32-.66,2.65-1.91,7.35-2.87,12.87-2.87,16.55,0,2.65.37,4.41,1.1,5.29.44.59.96.88,1.54.88,1.47,0,2.5-1.03,3.09-3.09.15-.74.44-1.1.88-1.1Z"/>
            <path class="cls-4" d="M689.38,209.51h0c.44,0,.51,1.03.22,3.09-.29,1.91-.66,3.24-1.1,3.97-.88,1.32-1.99,2.06-3.31,2.21-1.18.15-2.06-.22-2.65-1.1-1.76-2.5-2.5-6.03-2.21-10.59.29-2.65,1.4-7.87,3.31-15.66.29-1.03.66-1.84,1.1-2.43,1.03-1.62,1.54-1.84,1.54-.66,0,.44-.22,1.32-.66,2.65-1.91,7.35-2.87,12.87-2.87,16.55,0,2.65.37,4.41,1.1,5.29.44.59.96.88,1.54.88,1.47,0,2.5-1.03,3.09-3.09.15-.74.44-1.1.88-1.1Z"/>
            <path class="cls-4" d="M911.11,205.11h0c.44,0,.51,1.03.22,3.09-.29,1.91-.66,3.24-1.1,3.97-.88,1.32-1.99,2.06-3.31,2.21-1.18.15-2.06-.22-2.65-1.1-1.76-2.5-2.5-6.03-2.21-10.59.29-2.65,1.4-7.87,3.31-15.66.29-1.03.66-1.84,1.1-2.43,1.03-1.62,1.54-1.84,1.54-.66,0,.44-.22,1.32-.66,2.65-1.91,7.35-2.87,12.87-2.87,16.55,0,2.65.37,4.41,1.1,5.29.44.59.96.88,1.54.88,1.47,0,2.5-1.03,3.09-3.09.15-.74.44-1.1.88-1.1Z"/>
            <path class="cls-4" d="M1009.33,228.54h0c.44,0,.51,1.03.22,3.09-.29,1.91-.66,3.24-1.1,3.97-.88,1.32-1.99,2.06-3.31,2.21-1.18.15-2.06-.22-2.65-1.1-1.76-2.5-2.5-6.03-2.21-10.59.29-2.65,1.4-7.87,3.31-15.66.29-1.03.66-1.84,1.1-2.43,1.03-1.62,1.54-1.84,1.54-.66,0,.44-.22,1.32-.66,2.65-1.91,7.35-2.87,12.87-2.87,16.55,0,2.65.37,4.41,1.1,5.29.44.59.96.88,1.54.88,1.47,0,2.5-1.03,3.09-3.09.15-.74.44-1.1.88-1.1Z"/>
            <path class="cls-4" d="M530.26,229.98h0c-3.82,1.76-9.71,2.94-17.65,3.53-.59,0-.96-.15-1.1-.44-.15-.44,0-.81.44-1.1,5.15-2.21,11.84-5.29,20.07-9.27-1.18-1.03-4.78-1.76-10.81-2.21-5.74-.44-9.34-.51-10.81-.22-.59.15-1.03.15-1.32,0-.29-.15-.22-.51.22-1.1,2.06-3.24,4.56-6.54,7.5-9.93,5.74-1.18,13.09-.44,22.06,2.21,2.21.59,3.31,1.84,3.31,3.75,0,2.06-1.51,4.82-4.52,8.27-3.01,3.46-5.48,5.63-7.39,6.51Z"/>
            <path class="cls-4" d="M575.44,261.66h0c.44.44.44,1.54,0,3.31-.29,1.76-.74,2.65-1.32,2.65,0,0-.44-.59-1.32-1.76-.88-1.18-1.84-1.76-2.87-1.76-2.06,0-3.53,3.86-4.41,11.58-.88,7.72-1.69,11.51-2.43,11.36-.88,0-1.84-1.69-2.87-5.07-1.18-4.26-3.16-7.57-5.96-9.93-.15.29-.37.59-.66.88-.44.15-1.65-.33-3.64-1.43-1.99-1.1-3.05-2.1-3.2-2.98-.44-3.97.29-5.96,2.21-5.96,3.53-.15,7.28,3.6,11.25,11.25.59,1.62,1.4,3.46,2.43,5.52.44-3.68,1.03-7.35,1.76-11.03,1.18-6.77,3.01-10.07,5.52-9.93,1.91,0,3.75,1.1,5.52,3.31Z"/>
            <path class="cls-4" d="M620.34,298.34h0c.44,0,.51,1.03.22,3.09-.29,1.91-.66,3.24-1.1,3.97-.88,1.32-1.99,2.06-3.31,2.21-1.18.15-2.06-.22-2.65-1.1-1.76-2.5-2.5-6.03-2.21-10.59.29-2.65,1.4-7.87,3.31-15.66.29-1.03.66-1.84,1.1-2.43,1.03-1.62,1.54-1.84,1.54-.66,0,.44-.22,1.32-.66,2.65-1.91,7.35-2.87,12.87-2.87,16.55,0,2.65.37,4.41,1.1,5.29.44.59.96.88,1.54.88,1.47,0,2.5-1.03,3.09-3.09.15-.74.44-1.1.88-1.1Z"/>
            <path class="cls-4" d="M551.3,323.21h0c.44,0,.51,1.03.22,3.09-.29,1.91-.66,3.24-1.1,3.97-.88,1.32-1.99,2.06-3.31,2.21-1.18.15-2.06-.22-2.65-1.1-1.76-2.5-2.5-6.03-2.21-10.59.29-2.65,1.4-7.87,3.31-15.66.29-1.03.66-1.84,1.1-2.43,1.03-1.62,1.54-1.84,1.54-.66,0,.44-.22,1.32-.66,2.65-1.91,7.35-2.87,12.87-2.87,16.55,0,2.65.37,4.41,1.1,5.29.44.59.96.88,1.54.88,1.47,0,2.5-1.03,3.09-3.09.15-.74.44-1.1.88-1.1Z"/>
            <path class="cls-4" d="M845.32,231.18h0c.44,0,.51,1.03.22,3.09-.29,1.91-.66,3.24-1.1,3.97-.88,1.32-1.99,2.06-3.31,2.21-1.18.15-2.06-.22-2.65-1.1-1.76-2.5-2.5-6.03-2.21-10.59.29-2.65,1.4-7.87,3.31-15.66.29-1.03.66-1.84,1.1-2.43,1.03-1.62,1.54-1.84,1.54-.66,0,.44-.22,1.32-.66,2.65-1.91,7.35-2.87,12.87-2.87,16.55,0,2.65.37,4.41,1.1,5.29.44.59.96.88,1.54.88,1.47,0,2.5-1.03,3.09-3.09.15-.74.44-1.1.88-1.1Z"/>
            <path class="cls-4" d="M963.25,200.1h0c.44,0,.51,1.03.22,3.09-.29,1.91-.66,3.24-1.1,3.97-.88,1.32-1.99,2.06-3.31,2.21-1.18.15-2.06-.22-2.65-1.1-1.76-2.5-2.5-6.03-2.21-10.59.29-2.65,1.4-7.87,3.31-15.66.29-1.03.66-1.84,1.1-2.43,1.03-1.62,1.54-1.84,1.54-.66,0,.44-.22,1.32-.66,2.65-1.91,7.35-2.87,12.87-2.87,16.55,0,2.65.37,4.41,1.1,5.29.44.59.96.88,1.54.88,1.47,0,2.5-1.03,3.09-3.09.15-.74.44-1.1.88-1.1Z"/>
            <path class="cls-4" d="M1292.4,208.14h0c.44,0,.51,1.03.22,3.09-.29,1.91-.66,3.24-1.1,3.97-.88,1.32-1.99,2.06-3.31,2.21-1.18.15-2.06-.22-2.65-1.1-1.76-2.5-2.5-6.03-2.21-10.59.29-2.65,1.4-7.87,3.31-15.66.29-1.03.66-1.84,1.1-2.43,1.03-1.62,1.54-1.84,1.54-.66,0,.44-.22,1.32-.66,2.65-1.91,7.35-2.87,12.87-2.87,16.55,0,2.65.37,4.41,1.1,5.29.44.59.96.88,1.54.88,1.47,0,2.5-1.03,3.09-3.09.15-.74.44-1.1.88-1.1Z"/>
            <path class="cls-4" d="M1311.2,319.41h0c.44,0,.51,1.03.22,3.09-.29,1.91-.66,3.24-1.1,3.97-.88,1.32-1.99,2.06-3.31,2.21-1.18.15-2.06-.22-2.65-1.1-1.76-2.5-2.5-6.03-2.21-10.59.29-2.65,1.4-7.87,3.31-15.66.29-1.03.66-1.84,1.1-2.43,1.03-1.62,1.54-1.84,1.54-.66,0,.44-.22,1.32-.66,2.65-1.91,7.35-2.87,12.87-2.87,16.55,0,2.65.37,4.41,1.1,5.29.44.59.96.88,1.54.88,1.47,0,2.5-1.03,3.09-3.09.15-.74.44-1.1.88-1.1Z"/>
            <path class="cls-4" d="M1615.9,237.75h0c0,2.65-.51,4.63-1.54,5.96-1.91,2.06-4.34,2.21-7.28.44-1.18-.59-1.99-1.47-2.43-2.65-.44-.88-.88-.96-1.32-.22-1.62,3.53-3.75,5.29-6.4,5.29-1.18,0-2.28-.37-3.31-1.1-1.32-1.03-2.28-2.35-2.87-3.97-1.03-3.24-1.4-7.06-1.1-11.47-1.18.15-1.76-.15-1.76-.88,0-.44.44-1.47,1.32-3.09.88-1.62,1.4-2.43,1.54-2.43,1.47,0,2.13,1.84,1.99,5.52-.15,3.97.04,6.99.55,9.04.51,2.06,1.8,3.09,3.86,3.09,1.32,0,2.61-.59,3.86-1.76,1.25-1.18,1.8-2.65,1.65-4.41-.44-4.26-.81-6.73-1.1-7.39-.29-.66-.37-1.36-.22-2.1.15-.44.37-1.25.66-2.43.29-.88.74-.96,1.32-.22.44.74.88,1.84,1.32,3.31.44,1.91.66,4.26.66,7.06.15,2.06.66,3.68,1.54,4.85,1.62,1.76,3.31,2.28,5.07,1.54.59-.29.88-.74.88-1.32,0-1.03-1.25-4.34-3.75-9.93-.29-.59-.44-1.32-.44-2.21,0-.29.07-.51.22-.66.59-2.5,1.1-3.75,1.54-3.75s.74.74.88,2.21c0,.74.81,2.87,2.43,6.4,1.47,3.09,2.21,5.52,2.21,7.28Z"/>
            <polygon class="cls-4" points="1101.15 313.81 1112.35 320.38 1106.96 330.07 1095.76 323.5 1101.15 313.81"/>
            <path class="cls-4" d="M1092.98,323.31h0c.29.44.11,1.36-.55,2.76s-1.14,2.17-1.43,2.32c-9.12,3.38-18.24,6.77-27.35,10.15-11.62,4.41-20,8.09-25.15,11.03-.29-.59-.29-1.69,0-3.31.29-1.47.66-2.35,1.1-2.65,16.32-7.35,34.12-14.12,53.39-20.3Z"/>
            <path class="cls-4" d="M1016.9,173.33h0c.29.44.11,1.36-.55,2.76-.66,1.4-1.14,2.17-1.43,2.32-9.12,3.38-18.24,6.77-27.35,10.15-11.62,4.41-20,8.09-25.15,11.03-.29-.59-.29-1.69,0-3.31.29-1.47.66-2.35,1.1-2.65,16.32-7.35,34.12-14.12,53.39-20.3Z"/>
            <path class="cls-4" d="M928.63,322.57h0c.29.44.11,1.36-.55,2.76s-1.14,2.17-1.43,2.32c-9.12,3.38-18.24,6.77-27.35,10.15-11.62,4.41-20,8.09-25.15,11.03-.29-.59-.29-1.69,0-3.31.29-1.47.66-2.35,1.1-2.65,16.32-7.35,34.12-14.12,53.39-20.3Z"/>
            <path class="cls-4" d="M944.49,219.2h0c.44.44.44,1.54,0,3.31-.29,1.76-.74,2.65-1.32,2.65,0,0-.44-.59-1.32-1.76-.88-1.18-1.84-1.76-2.87-1.76-2.06,0-3.53,3.86-4.41,11.58-.88,7.72-1.69,11.51-2.43,11.36-.88,0-1.84-1.69-2.87-5.07-1.18-4.26-3.16-7.57-5.96-9.93-.15.29-.37.59-.66.88-.44.15-1.65-.33-3.64-1.43-1.99-1.1-3.05-2.1-3.2-2.98-.44-3.97.29-5.96,2.21-5.96,3.53-.15,7.28,3.6,11.25,11.25.59,1.62,1.4,3.46,2.43,5.52.44-3.68,1.03-7.35,1.76-11.03,1.18-6.77,3.01-10.07,5.52-9.93,1.91,0,3.75,1.1,5.52,3.31Z"/>
            <path class="cls-4" d="M1143.49,207.84h0c.44.44.44,1.54,0,3.31-.29,1.76-.74,2.65-1.32,2.65,0,0-.44-.59-1.32-1.76-.88-1.18-1.84-1.76-2.87-1.76-2.06,0-3.53,3.86-4.41,11.58-.88,7.72-1.69,11.51-2.43,11.36-.88,0-1.84-1.69-2.87-5.07-1.18-4.26-3.16-7.57-5.96-9.93-.15.29-.37.59-.66.88-.44.15-1.65-.33-3.64-1.43-1.99-1.1-3.05-2.1-3.2-2.98-.44-3.97.29-5.96,2.21-5.96,3.53-.15,7.28,3.6,11.25,11.25.59,1.62,1.4,3.46,2.43,5.52.44-3.68,1.03-7.35,1.76-11.03,1.18-6.77,3.01-10.07,5.51-9.93,1.91,0,3.75,1.1,5.52,3.31Z"/>
            <path class="cls-4" d="M823.19,229.61h0c.44.44.44,1.54,0,3.31-.29,1.76-.74,2.65-1.32,2.65,0,0-.44-.59-1.32-1.76-.88-1.18-1.84-1.76-2.87-1.76-2.06,0-3.53,3.86-4.41,11.58s-1.69,11.51-2.43,11.36c-.88,0-1.84-1.69-2.87-5.07-1.18-4.26-3.16-7.57-5.96-9.93-.15.29-.37.59-.66.88-.44.15-1.65-.33-3.64-1.43s-3.05-2.1-3.2-2.98c-.44-3.97.29-5.96,2.21-5.96,3.53-.15,7.28,3.6,11.25,11.25.59,1.62,1.4,3.46,2.43,5.52.44-3.68,1.03-7.35,1.76-11.03,1.18-6.77,3.01-10.07,5.52-9.93,1.91,0,3.75,1.1,5.52,3.31Z"/>
            <path class="cls-4" d="M787.89,325.61h0c.29.44.11,1.36-.55,2.76s-1.14,2.17-1.43,2.32c-9.12,3.38-18.24,6.77-27.35,10.15-11.62,4.41-20,8.09-25.15,11.03-.29-.59-.29-1.69,0-3.31.29-1.47.66-2.35,1.1-2.65,16.32-7.35,34.12-14.12,53.39-20.3Z"/>
            <path class="cls-4" d="M1331.07,323.25h0c.33.49.12,1.51-.61,3.07-.74,1.56-1.27,2.42-1.6,2.58-10.15,3.77-20.31,7.53-30.46,11.3-12.94,4.91-22.27,9.01-28,12.28-.33-.66-.33-1.88,0-3.68.33-1.64.74-2.62,1.23-2.95,18.18-8.19,37.99-15.72,59.45-22.6Z"/>
          </g>
          <text class="cls-2" transform="translate(482.45 431.63)"><tspan class="cls-3" x="0" y="0">SHAIKHUNA PARANNUR USTHAD SMARAKA </tspan><tspan class="cls-5" x="859.39" y="0">MINHAJUL JANNA DARS</tspan></text>
        </g>
        <g>
          <path d="M164.43,435.29c.54.4,1.42.19,2.54-.37,1.32-.67,2.47-1.65,3.8-2.3,2.49-1.21,4.99-2.4,7.51-3.55,4.92-2.26,9.9-4.4,14.94-6.37,10.18-4,20.64-7.36,31.33-9.71,26.95-5.93,54.7-1.2,81.95-1.18,12.95,0,25.76-2.35,38.67-3.02,26.39-1.34,52.47,6.74,76.15,17.79,4.31,2.01,8.58,4.13,12.8,6.34,1.36.71,10.21,4.29,10.21,6.03,0,0,0-65.63,0-65.63h-6.17c-2.94,0-7.05-.71-9.69.8-1.13.64-2.01,1.86-1.94,3.16.1,1.72,1.6,3.57,3.32,3.79,1.73.21,3.56,0,5.31-.04-.02,0-.01,35.3-.01,39.04,0-.31-3.07-1.49-3.34-1.62-3.08-1.44-6.21-2.8-9.37-4.08-10.12-4.12-20.54-7.56-31.19-10.03-17.49-4.06-34.73-4.58-52.48-2.45-5.82.7-11.6,1.62-17.35,2.74-4.65.9-9.69,2.44-14.55,2.44-5.38,0-10.63-1.39-15.92-2.21-10.16-1.56-20.39-2.72-30.66-3.2-8.81-.42-17.71-.39-26.47.76-11.52,2.06-23,4.68-34.27,7.86-5.04,1.42-10.06,2.98-14.94,4.88-4.37,1.7-8.37,4.56-13.1,5.2-.07-12.07.02-24.15-.03-36.22-.01-2.85,2.35-4.95,4.84-5.88.91-.33,2.12-.67,2.66-1.55.37-.61.73-2.78.07-3.23-.32-.22-.73-.22-1.11-.22-4.06.01-8.13.08-12.19.08,0,0-2.79.6-2.53,4.02,0,9.63.27,19.27.41,28.9.13,9.04.15,18.09.21,27.13,0,1.03.22,1.64.62,1.93Z"/>
          <path d="M185.22,326.83c-.57,1.03-.89,2.19-.89,3.47,0,22.17,0,44.34,0,66.51,0,.65,0,1.33.33,1.89.89,1.55,3.21,1.08,4.88.44,34.27-13.25,73.82-12.22,107.36,2.8,1.9.85,3.84,1.76,5.92,1.82,2.2.06,4.3-.83,6.34-1.67,35.88-14.72,77.32-15.33,113.62-1.68,0-25.65,0-51.29.01-76.94-4.34-.89-8.86-.93-13.22-.11-1.72.32-3.59.9-4.46,2.41-1.16,2.01.14,4.73,2.17,5.86s4.48,1.09,6.79.92c0,17.86,0,35.73,0,53.59-35.5-10.33-75.08-5.79-107.31,12.32-.96.54-1.97,1.1-3.07,1.09-1.08-.02-2.06-.59-2.99-1.14-31.66-18.56-70.92-20.69-106.79-12.95-.07-15.9-.14-31.81-.21-47.71,0-1.96.18-4.3,1.87-5.29,1.16-.68,2.64-.46,3.89-.95,3.66-1.42,2.22-7.63-1.47-8.96-4.64-1.67-10.56.25-12.77,4.28Z"/>
          <path d="M207.62,299.73c-.07.29-.11.61-.11.96.05,12.92.02,25.84.02,38.77,0,6.62,0,13.25,0,19.87,0,2.88-.7,6.77,0,9.55.65,2.57,0,1.73,2.02,2.23,4.67,1.15,9.65.16,14.37-.05,19.35-.86,41.31,3.89,58.89,12,0,0,18.42,8.23,20.74,9.95,17.73-9.04,36.35-17.97,56.34-20.36,13.17-1.58,27.03-.54,40.31-.7,0,0,0-73.86,0-73.86-10.29,0-19.54-.16-29.59,2.36-6.55,1.64-16.83,3.24-21.83,8.24,0,0-2.74,2.74,3.42,1.2,0,0,26.84-6.5,34.37-4.1,0,0,2.39-.51,2.56,4.27,0,17.06.03,34.12,0,51.17,0,.56-.02,1.18-.4,1.59-.35.39-.92.48-1.44.54-6.72.74-13.61.13-20.38.86-7.37.79-14.68,2.17-21.83,4.15-13.98,3.88-27.39,10.09-39.01,18.83-.54.41-1.09,1.01-1.76.96-3.63-.31-13.08-6.34-16.31-8.06-4.02-2.14-7.99-4.59-12.15-6.43-8.46-3.75-17.14-7.14-26.25-8.93s-18.72-1.28-28.2-1.28c0,0-3.76.8-3.76-6.72,0,0,0-48.6,0-48.9,0-7.58,32.29,1.58,35.48,1.84.62.05-2.74-3.97-3.44-4.43-1.66-1.07-3.69-1.73-5.53-2.41-5-1.83-10.22-3.13-15.44-4.16-4.07-.8-19.66-4.91-21.09,1.05Z"/>
          <path class="cls-4" d="M269.2,306.89c-.22-1.46,3.93-4.62,4.83-5.3,4.99-3.78,10.66-2.75,16.23-4.53-2.09.67-6.48-41.34-16.95-37.35-4.38,1.67-8.86,3.15-13.04,5.29-2.45,1.26-10.34,4.51-9.96,7.95.08.74.48,1.4.86,2.04,3.59,5.89,7.42,11.78,10.83,17.61,2.43,4.16,6.47,9.4,7.2,14.3Z"/>
          <path class="cls-4" d="M277.92,321.13s5.33-12.76,19.91-9.3c0,0,.99-8.72-5.62-11.67,0,0-16.86-.13-20.9,9.62,0,0-.19,9.42,6.6,11.35Z"/>
          <path class="cls-4" d="M282.02,325.36s-1.99-5.64,1.15-8.08c0,0,4.42-4.94,11.99-3.01,0,0,2.63.96,3.27,2.82,0,0,5.39,13.78,11.35,22.5,0,0,3.33,2.63,2.12,7.89l.27,11.6-9.44-22.63s-4.17-4.17-4.23,1.99l13.67,25.02-22.84-17.19-7.31-20.9Z"/>
          <path d="M212.7,285.95s12.31-18.83,35.9-26.51c6.74-2.66,13.44-5.45,20.1-8.31,5.4-2.32,10.78-4.7,16.08-7.25,3.78-1.82,8.62-3.06,11.61-6.17,2.32-2.42,1.5-6.18,1.5-9.4,0-5.86,0-11.73,0-17.6,0,.82-2.17,2.63-2.66,3.16-2.84,3.04-6.04,5.75-9.35,8.26-9.67,7.31-20.7,12.45-31.74,17.3-5.35,2.36-10.7,4.53-15.68,7.62-5.22,3.25-10.15,6.96-15.54,9.94-.67.37-1.52.48-2.17.09-.5-.3-.81-.85-1.01-1.4-.86-2.37-.23-5.05.48-7.37,1.53-4.96,6.95-8.26,10.74-11.39,5.14-4.24,10.71-7.82,16.65-10.84,6.59-3.35,12.27-8.01,18.21-12.37,5.49-4.02,10.91-8.16,15.88-12.82,9.79-9.16,17.47-20.4,19.7-33.83.34-2.06,1.86-.72,2.16.55,5.95,25.49,27.94,40.72,48.94,53.82,8.51,5.31,18.87,10.78,25.43,18.52,1.29,1.52,2.42,3.18,3.54,4.83,2.24,3.28,4.54,6.75,4.92,10.71-13.41-6.14-26.75-12.4-39.78-19.3-11.73-6.2-24.19-12.63-34.16-21.52-1.68-1.5-2.96-3.3-4.53-4.87-1.15-1.03-1.28.64-1.28.64,0,8.85,0,17.7,0,26.54,12.17,5.66,24.34,11.32,36.5,16.99,10.34,4.82,20.89,9.41,30.76,15.15,7.6,4.42,16.6,10.12,19.8,18.77,0,0,2.31,0,2.31,0,.68-8.31,1.14-16.65,1.39-24.99.4-13.29.99-26.12-7.57-37.15-9.16-11.8-20.1-21.8-31.86-30.97-17.92-13.97-40.51-25.96-51.45-46.77-.87-1.66-1.91-4-3.24-5.46-.21,2.97-2.53,5.4-3.93,7.88-5.94,10.53-16.71,18.15-25.69,25.93-10.7,9.28-21.53,18.43-32.86,26.95-12.17,9.15-29.64,23.01-30.85,39.42l2.74,43.17Z"/>
          <g>
            <path class="cls-1" d="M215.56,429.69c1.49,7.28,2.23,10.93,3.72,18.21-1.5.31-2.26.47-3.76.79-1.01-4.73-1.52-7.09-2.53-11.82-1.05,5.17-1.55,7.76-2.48,12.93-1.14.26-1.7.39-2.84.65-3.11-4.24-4.7-6.34-7.92-10.53,1.16,4.69,1.74,7.04,2.9,11.74-1.49.37-2.24.56-3.73.94-1.85-7.2-2.77-10.8-4.62-18,1.77-.45,2.65-.68,4.43-1.11,3.79,4.76,5.65,7.16,9.3,11.99,1.16-5.94,1.78-8.91,3.11-14.85,1.77-.38,2.66-.57,4.43-.93Z"/>
            <path class="cls-1" d="M219.98,430.29c-.54-.32-.87-.78-.99-1.39s0-1.16.39-1.66c.38-.5.92-.82,1.62-.95.7-.13,1.32-.04,1.85.29.54.32.86.79.97,1.4.11.61-.02,1.16-.4,1.66-.38.5-.92.81-1.61.94-.69.13-1.3.04-1.84-.28ZM224.07,431.94c1.08,5.8,1.62,8.7,2.69,14.5-1.51.28-2.26.42-3.77.72-1.13-5.79-1.7-8.69-2.83-14.48,1.56-.3,2.34-.45,3.9-.74Z"/>
            <path class="cls-1" d="M241.2,430.58c1.3.93,2.08,2.39,2.35,4.36.48,3.43.73,5.14,1.21,8.57-1.52.21-2.28.33-3.79.55-.49-3.22-.73-4.83-1.21-8.06-.17-1.16-.61-2-1.32-2.53-.71-.53-1.59-.71-2.65-.54-1.07.17-1.87.62-2.39,1.34-.52.72-.68,1.66-.48,2.82l1.34,8.04c-1.51.25-2.27.38-3.78.65-1.03-5.81-1.54-8.72-2.56-14.53,1.56-.28,2.35-.41,3.91-.67.12.72.18,1.09.3,1.81.41-.72,1-1.32,1.75-1.81.75-.49,1.62-.81,2.59-.96,1.85-.29,3.43.04,4.72.97Z"/>
            <path class="cls-1" d="M258.4,427.49c.97.39,1.76,1.03,2.36,1.93.61.89.97,2.01,1.1,3.33.34,3.44.51,5.17.84,8.61-1.52.15-2.28.23-3.81.39-.35-3.24-.52-4.86-.87-8.1-.12-1.17-.53-2.03-1.21-2.59-.68-.56-1.56-.78-2.62-.66-1.08.12-1.89.54-2.44,1.24-.55.7-.75,1.63-.6,2.8.4,3.23.6,4.85,1,8.09-1.52.19-2.28.28-3.8.49-1.04-7.81-1.55-11.72-2.59-19.53,1.59-.21,2.38-.31,3.98-.51.33,2.7.5,4.04.83,6.74.43-.7,1.04-1.28,1.84-1.74.8-.46,1.72-.75,2.75-.87,1.18-.13,2.26,0,3.23.39Z"/>
            <path class="cls-1" d="M265.24,429.67c.52-1.2,1.3-2.16,2.32-2.87,1.03-.71,2.21-1.12,3.55-1.22,1.17-.09,2.2.06,3.11.44.9.38,1.64.9,2.2,1.54-.05-.84-.08-1.26-.13-2.1,1.59-.1,2.39-.15,3.98-.23.32,5.89.48,8.84.79,14.73-1.54.08-2.31.13-3.84.22-.05-.86-.08-1.29-.14-2.15-.45.72-1.09,1.34-1.92,1.85-.83.51-1.81.81-2.94.89-1.27.1-2.45-.13-3.55-.68-1.1-.55-2.01-1.37-2.72-2.48-.72-1.1-1.15-2.4-1.28-3.91-.14-1.49.05-2.83.57-4.04ZM276.05,430.54c-.41-.62-.95-1.09-1.61-1.39-.66-.3-1.35-.43-2.08-.37-.73.05-1.39.27-1.98.66-.59.38-1.05.91-1.38,1.59-.33.68-.46,1.46-.38,2.34.07.88.33,1.64.76,2.28.43.63.97,1.1,1.61,1.41.64.31,1.31.44,2,.38.71-.05,1.37-.27,1.97-.66.6-.39,1.06-.92,1.39-1.59.33-.67.46-1.46.41-2.36s-.29-1.67-.7-2.29Z"/>
            <path class="cls-1" d="M288.7,442.05c.06,1.63-.31,2.82-1.1,3.57-.79.75-1.94,1.16-3.46,1.23-.67.03-1,.05-1.66.08-.07-1.27-.1-1.9-.16-3.16.43-.02.65-.03,1.08-.05.58-.03.98-.16,1.2-.39.22-.23.33-.6.3-1.09-.31-6.87-.46-10.31-.77-17.18,1.58-.07,2.37-.1,3.95-.16.25,6.87.37,10.3.62,17.16ZM284.27,422.65c-.48-.4-.74-.9-.77-1.52-.03-.62.18-1.15.63-1.59.45-.44,1.04-.67,1.76-.7.71-.03,1.3.16,1.77.56.47.4.72.91.74,1.53.02.62-.19,1.15-.63,1.58-.44.43-1.01.66-1.71.69-.72.03-1.32-.15-1.8-.55Z"/>
            <path class="cls-1" d="M306.76,424.61c-.04,5.9-.06,8.85-.1,14.75-1.54-.01-2.31-.01-3.85,0,0-.75,0-1.12,0-1.86-.49.64-1.13,1.14-1.92,1.51-.79.37-1.65.56-2.57.57-1.18.02-2.23-.21-3.15-.68-.92-.47-1.65-1.17-2.2-2.11-.55-.94-.84-2.06-.88-3.37-.09-3.46-.14-5.19-.24-8.65,1.58-.04,2.37-.06,3.95-.09.06,3.25.09,4.87.15,8.12.02,1.17.34,2.07.96,2.69.62.62,1.44.92,2.49.91,1.06-.01,1.89-.33,2.5-.96.6-.63.91-1.53.9-2.71,0-3.25-.01-4.87-.02-8.12,1.59,0,2.39,0,3.98,0Z"/>
            <path class="cls-1" d="M314.73,419.79c-.2,7.88-.29,11.82-.49,19.7-1.53-.04-2.29-.05-3.82-.08.12-7.88.19-11.82.31-19.7,1.6.03,2.4.04,4,.08Z"/>
            <path class="cls-1" d="M337,422.03c-.39,5.2-.59,7.81-.99,13.01-.14,1.81-.79,3.17-1.93,4.09-1.15.92-2.61,1.32-4.41,1.21-1.82-.11-3.25-.71-4.32-1.79-1.07-1.08-1.57-2.55-1.48-4.39,1.55.07,2.32.11,3.87.2-.03.8.14,1.43.49,1.89s.88.72,1.6.76c.7.04,1.24-.14,1.63-.54.39-.4.62-.97.67-1.72.35-5.21.52-7.81.87-13.02,1.6.11,2.41.16,4.01.29Z"/>
            <path class="cls-1" d="M340.94,429.56c.72-1.1,1.65-1.9,2.79-2.42,1.13-.52,2.37-.71,3.7-.58,1.16.12,2.16.44,2.98.98.82.54,1.46,1.17,1.91,1.9.09-.84.14-1.25.24-2.09,1.59.18,2.38.27,3.96.46-.71,5.86-1.07,8.79-1.78,14.64-1.53-.19-2.3-.28-3.83-.45.1-.86.14-1.29.24-2.14-.57.63-1.31,1.13-2.22,1.48-.91.36-1.92.48-3.05.37-1.27-.13-2.39-.56-3.38-1.29-.99-.73-1.74-1.7-2.25-2.91-.51-1.21-.71-2.57-.58-4.07.12-1.49.54-2.78,1.27-3.87ZM351.44,432.29c-.3-.68-.75-1.24-1.34-1.65-.6-.41-1.26-.66-1.98-.73-.73-.07-1.41.03-2.06.3-.65.28-1.19.72-1.63,1.33-.44.61-.7,1.36-.78,2.24-.08.88.03,1.67.35,2.37.31.7.76,1.25,1.34,1.67.58.41,1.21.66,1.91.73.71.07,1.4-.03,2.05-.31.66-.28,1.21-.72,1.64-1.32.44-.6.71-1.35.81-2.25.1-.9,0-1.69-.3-2.38Z"/>
            <path class="cls-1" d="M373.22,431.64c.96,1.28,1.27,2.9.94,4.86-.57,3.41-.85,5.12-1.42,8.54-1.51-.25-2.27-.37-3.78-.61.5-3.22.76-4.83,1.26-8.05.18-1.16.02-2.1-.5-2.81-.51-.72-1.3-1.16-2.36-1.31-1.08-.16-1.97.03-2.68.56-.71.54-1.14,1.38-1.31,2.55-.45,3.23-.68,4.84-1.13,8.07-1.52-.21-2.28-.32-3.79-.51.77-5.85,1.15-8.78,1.91-14.63,1.57.21,2.36.31,3.93.53-.1.73-.15,1.09-.25,1.82.61-.56,1.35-.96,2.21-1.2.86-.24,1.78-.29,2.76-.14,1.85.28,3.26,1.07,4.22,2.34Z"/>
            <path class="cls-1" d="M391.6,435.02c.9,1.32,1.14,2.95.73,4.9-.71,3.39-1.07,5.08-1.78,8.47-1.5-.32-2.26-.47-3.76-.77.64-3.2.96-4.79,1.61-7.99.23-1.15.11-2.09-.38-2.83-.48-.74-1.25-1.21-2.31-1.41-1.07-.21-1.97-.06-2.71.45-.73.5-1.2,1.33-1.42,2.49-.59,3.21-.89,4.81-1.48,8.01-1.51-.28-2.26-.41-3.78-.68,1.02-5.81,1.52-8.72,2.54-14.53,1.56.27,2.35.41,3.91.7-.13.72-.2,1.08-.33,1.81.63-.53,1.39-.9,2.26-1.11.88-.2,1.8-.21,2.76-.02,1.84.36,3.22,1.21,4.12,2.52Z"/>
            <path class="cls-1" d="M396.49,438.01c.86-.99,1.89-1.67,3.09-2.04,1.2-.37,2.46-.4,3.77-.09,1.14.27,2.1.72,2.85,1.36.75.64,1.3,1.35,1.66,2.13.2-.82.3-1.23.5-2.04,1.56.38,2.34.58,3.89.98-1.47,5.72-2.2,8.57-3.67,14.29-1.5-.39-2.25-.58-3.76-.95.21-.84.31-1.26.52-2.09-.65.55-1.45.95-2.4,1.18-.95.24-1.98.22-3.09-.04-1.25-.29-2.31-.86-3.2-1.72-.89-.86-1.51-1.92-1.86-3.18-.35-1.27-.38-2.64-.06-4.11.32-1.46.9-2.68,1.76-3.68ZM406.6,442.09c-.21-.72-.58-1.32-1.12-1.81-.54-.49-1.17-.82-1.88-.98-.71-.17-1.41-.16-2.09.03-.68.19-1.28.56-1.8,1.1-.52.55-.87,1.25-1.07,2.12s-.18,1.66.04,2.4c.22.73.59,1.34,1.12,1.83.52.49,1.12.81,1.81.97.7.17,1.39.15,2.09-.03.69-.19,1.29-.55,1.81-1.09.51-.54.88-1.25,1.1-2.13.22-.88.22-1.68.01-2.4Z"/>
          </g>
          <path class="cls-4" d="M314.6,363.05c11.76,3.39,25.19,3.21,35.85-3.04,0,0,.07,2.99.07,2.99-4.07-1.8-8.55-2.7-13.15-3.55-2.3-.43-4.64-.86-6.99-1.41-1.67-.45-3.25-.86-4.44-2.68-2.32-4.59,2.59-7.09,6.32-7.35,5.38-.79,10.67-2.81,15.17-5.81,1.34-.99,3.69-2.71,2.77-4.36-1.59-2.13-4.69-2.57-7.18-3.75-4.83-1.87-8.07-6.64-6.71-11.93.69-2.95,2.29-5.38,4.42-7.4,3.05-2.86,6.92-4.6,9.73-7.39,2.39-2.5,3.95-6.76,1.44-9.79,0,0,.42-.52.42-.52,4.18,2.68,3.47,8.91.96,12.56-3.1,5.19-12.12,8.95-10.7,15.68.57,1.31,1.67,1.83,3.15,2.45,2.22.88,4.87,1.57,7.01,3.1,7.14,4.87,4.84,12.88-2.08,16.52-5.49,3.12-11.53,5.05-17.79,5.64-1.06.11-1.78.14-2.59.49-.3.11-.34.24-.24.04.1-.26.04-.38-.05-.52-.1-.11,0,.07.31.23.31.16.71.32,1.23.47,2.18.64,4.43,1.18,6.72,1.73,4.56,1.1,9.31,2.3,13.73,4.54,0,0,3,1.52,3,1.52l-2.93,1.47c-11.76,5.83-25.69,5.26-37.65.72,0,0,.21-.63.21-.63h0Z"/>
        </g>
      </g>
    </g>
  </g>
</svg>